<?xml version="1.0" encoding="UTF-8" standalone="no"?>
<svg
   xmlns:dc="http://purl.org/dc/elements/1.1/"
   xmlns:cc="http://creativecommons.org/ns#"
   xmlns:rdf="http://www.w3.org/1999/02/22-rdf-syntax-ns#"
   xmlns:svg="http://www.w3.org/2000/svg"
   xmlns="http://www.w3.org/2000/svg"
   width="96"
   zoomAndPan="magnify"
   viewBox="0 0 71.999994 71.999995"
   height="96"
   preserveAspectRatio="xMidYMid meet"
   version="1.0"
   id="svg107">
  <metadata
     id="metadata111">
    <rdf:RDF>
      <cc:Work
         rdf:about="">
        <dc:format>image/svg+xml</dc:format>
        <dc:type
           rdf:resource="http://purl.org/dc/dcmitype/StillImage" />
        <dc:title></dc:title>
      </cc:Work>
    </rdf:RDF>
  </metadata>
  <defs
     id="defs7">
    <g
       id="g2" />
    <clipPath
       id="id1">
      <path
         d="M 64.164062,187.5 H 237.5625 v 26.39844 H 64.164062 Z m 0,0"
         clip-rule="nonzero"
         id="path4" />
    </clipPath>
  </defs>
  <g
     id="g3371"
     transform="translate(-15.837532,-7.413063)">
    <g
       id="g3334"
       transform="matrix(0.41028624,0,0,0.47266061,9.3396106,3.9092001)">
      <ellipse
         style="fill:#020e1d;fill-opacity:1;stroke:none;stroke-width:0.746316"
         id="path325"
         cx="103.58115"
         cy="83.577644"
         rx="87.743614"
         ry="76.164581" />
      <g
         id="g661"
         transform="translate(16.66919,33.515125)">
        <g
           fill="#000000"
           fill-opacity="1"
           id="g15"
           transform="translate(-64.164062,-140.39503)">
          <g
             transform="translate(66.761116,230.34775)"
             id="g13">
            <g
               id="g11">
              <path
                 id="path9"
                 style="stroke-width:1.33333;fill:#00b1ff;fill-opacity:1"
                 transform="matrix(0.74999999,0,0,0.74999999,-2.597054,-89.95272)"
                 d="m 6.6914062,13.5625 v 1.603516 l 4.1874998,1.9375 c 2.041667,0.864584 3.303385,1.936849 3.792969,3.228515 0.484375,1.28125 0.728516,2.995443 0.728516,5.146485 v 36.546875 h 3.785156 l -0.410156,-34.44336 13.107421,34.44336 h 1.017579 3.90625 3.662109 6.505859 2.333985 c 0.08382,-0.0058 0.169742,-0.01688 0.25,-0.01367 0.18879,9.32e-4 0.377625,0.0085 0.566406,0.01367 h 1.957031 c 0.07684,-0.0041 0.153621,0.0022 0.230469,-0.0039 0.830829,-0.05692 1.581006,-0.107563 2.332031,-0.101562 0.477535,0.0038 0.963632,0.04341 1.460938,0.105469 h 0.214843 L 37.796875,13.5625 Z m 88.9804688,0 -17.435547,48.462891 h 0.757813 3.859375 l 12.818359,-35.56836 -0.257813,35.56836 h 2.371094 2.701174 2.00195 1.64453 1.64844 2.39844 3.02343 7.16407 1.1582 v -37.50586 c 0,-2.151041 0.375,-3.895182 1.125,-5.228515 0.75,-1.343751 2.14583,-2.400391 4.1875,-3.166016 l 2.58399,-0.958984 V 13.5625 Z M 15.400391,98.583984 V 108 c 0,4.94792 -1.833334,8.01042 -5.5000004,9.1875 l -3.2089844,1.14453 v 1.60547 H 27.962891 v -1.60547 l -3.541016,-1.14453 c -2.041667,-0.63542 -3.416667,-1.67708 -4.125,-3.125 -0.697917,-1.45833 -1.042969,-3.36589 -1.042969,-5.73047 v -9.746092 c -1.284426,-4.81e-4 -2.568846,-0.0017 -3.853515,-0.002 z m 30.396484,0.002 8.125,21.351566 h 8.0625 L 69.677734,98.585938 H 60.5625 53.916016 46.339844 Z m 49.541016,0 V 108.8125 c 0,2.15625 -0.270834,3.82292 -0.8125,5 -0.53125,1.18229 -1.811849,2.20313 -3.853516,3.0625 l -3.396484,1.45703 v 1.60547 h 40.146489 v -1.60547 l -3.23047,-1.45703 c -2.04167,-0.85937 -3.33334,-1.88021 -3.875,-3.0625 -0.53125,-1.17708 -0.79102,-2.84375 -0.79102,-5 V 98.585938 h -1.52148 -8.63086 -10.759769 z" />
            </g>
          </g>
        </g>
        <g
           fill="#000000"
           fill-opacity="1"
           id="g23"
           transform="translate(-64.164062,-140.39503)">
          <g
             transform="translate(167.58539,230.34775)"
             id="g21">
            <g
               id="g19">
              <path
                 id="path17"
                 style="stroke-width:1.33333;fill:#00b1ff;fill-opacity:1"
                 transform="matrix(0.74999999,0,0,0.74999999,-103.42133,-89.95272)"
                 d="m 141.4375,13.5625 v 1.603516 l 3.70703,1.458984 c 2.04167,0.75 3.35417,1.744141 3.9375,2.978516 0.59375,1.239584 0.89649,2.927082 0.89649,5.0625 v 37.501953 h 1.16601 2.03125 1.79688 2.35937 1.75977 2.53125 1.19726 1.81641 1.48437 1.79493 1.14453 1.23047 1.26562 1.2207 1.38868 V 16.769531 h 29 c 2.15104,0 3.76106,0.600261 4.83398,1.792969 1.08333,1.182292 2.10807,2.738933 3.08203,4.666016 L 218,38.375 h 1.625 l -0.98047,-24.8125 z m 61.10352,37.0625 -3.22852,6.457031 c -0.86458,1.932292 -1.86458,3.458985 -3,4.583985 -0.18411,0.184108 -0.38821,0.347974 -0.59961,0.501953 h 0.875 1.625 1.66211 1.05664 1.66211 1.55078 V 50.625 Z m -52.5625,47.960938 V 108.8125 c 0,2.15625 -0.34831,3.84766 -1.04102,5.08203 -0.69792,1.23959 -1.95964,2.23047 -3.79297,2.98047 l -3.70703,1.45703 v 1.60547 h 80.4375 l 0.82422,-21.351562 h -0.31641 -2.23242 -0.43164 L 214.625,110.26953 c -0.75,2.04167 -1.72526,3.625 -2.91797,4.75 -1.18229,1.125 -2.8431,1.6875 -4.97851,1.6875 h -32.5625 V 98.585938 h -0.65235 -4.11523 -4.63867 -5.85938 -5.5293 z" />
            </g>
          </g>
        </g>
        <g
           fill="#000000"
           fill-opacity="1"
           id="g35"
           transform="translate(-61.01702,-140.76512)">
          <g
             transform="translate(71.620326,205.74413)"
             id="g33">
            <g
               id="g31">
              <path
                 d="M 8.828125,-8.0625 V 0 H 7.921875 V -6.671875 L 4.9375,-2.84375 1.90625,-6.671875 V 0 H 0.984375 v -8.0625 h 1.0625 L 4.9375,-4.234375 7.78125,-8.0625 Z m 0,0"
                 id="path29"
                 style="fill:#00b1ff;fill-opacity:1" />
            </g>
          </g>
        </g>
        <g
           fill="#000000"
           fill-opacity="1"
           id="g49"
           transform="translate(-59.80115,-59.363364)">
          <g
             transform="translate(103.55934,205.74413)"
             id="g47">
            <g
               id="g45">
              <path
                 d="m 6.8153797,-81.401765 h -1.015625 l -0.984375,-2.34375 H 0.81537971 l -0.984375,2.34375 H -1.1846203 l 3.4375,-8.0625 h 1.140625 z m -2.359375,-3.1875 -1.640625,-3.9375 -1.640625,3.9375 z m 0,0"
                 id="path43"
                 style="fill:#00b1ff;fill-opacity:1" />
            </g>
          </g>
        </g>
        <g
           fill="#000000"
           fill-opacity="1"
           id="g63"
           transform="translate(-61.01702,-140.76512)">
          <g
             transform="translate(133.74338,205.74413)"
             id="g61">
            <g
               id="g59">
              <path
                 d="M 1.90625,0 H 0.984375 V -8.0625 H 4.84375 c 0.820312,0 1.484375,0.226562 1.984375,0.671875 0.488281,0.449219 0.734375,1.0625 0.734375,1.84375 0,1.011719 -0.417969,1.699219 -1.25,2.0625 C 6.070312,-3.378906 5.84375,-3.300781 5.625,-3.25 L 7.734375,0 H 6.65625 L 4.703125,-3.09375 H 1.90625 Z m 0,-3.953125 H 4.6875 c 0.863281,0 1.457031,-0.269531 1.78125,-0.8125 0.125,-0.195313 0.1875,-0.457031 0.1875,-0.78125 C 6.65625,-6.054688 6.476562,-6.457031 6.125,-6.75 5.78125,-7.050781 5.316406,-7.203125 4.734375,-7.203125 H 1.90625 Z m 0,0"
                 id="path57"
                 style="fill:#00b1ff;fill-opacity:1" />
            </g>
          </g>
        </g>
        <g
           fill="#000000"
           fill-opacity="1"
           id="g77"
           transform="translate(-61.01702,-140.76512)">
          <g
             transform="translate(164.01272,205.74413)"
             id="g75">
            <g
               id="g73">
              <path
                 d="m 1.90625,-7.1875 v 2.703125 H 6.390625 V -3.59375 H 1.90625 V -0.875 H 6.921875 V 0 h -5.9375 v -8.0625 h 5.9375 v 0.875 z m 0,0"
                 id="path71"
                 style="fill:#00b1ff;fill-opacity:1" />
            </g>
          </g>
        </g>
        <g
           fill="#000000"
           fill-opacity="1"
           id="g91"
           transform="translate(-61.01702,-140.76512)">
          <g
             transform="translate(193.53865,205.74413)"
             id="g89">
            <g
               id="g87">
              <path
                 d="M 1.90625,-8.0625 V -0.875 H 6.296875 V 0 h -5.3125 v -8.0625 z m 0,0"
                 id="path85"
                 style="fill:#00b1ff;fill-opacity:1" />
            </g>
          </g>
        </g>
        <g
           fill="#000000"
           fill-opacity="1"
           id="g105"
           transform="translate(-61.01702,-140.76512)">
          <g
             transform="translate(222.15051,205.74413)"
             id="g103">
            <g
               id="g101">
              <path
                 d="M 4.296875,0 H 3.375 v -3.1875 l -3.390625,-4.875 H 1.09375 L 3.828125,-4.140625 6.5625,-8.0625 h 1.109375 l -3.375,4.875 z m 0,0"
                 id="path99"
                 style="fill:#00b1ff;fill-opacity:1" />
            </g>
          </g>
        </g>
      </g>
    </g>
  </g>
  <g
     fill="#000000"
     fill-opacity="1"
     id="g41"
     transform="translate(-65.335624,-108.47899)">
    <g
       transform="translate(91.203405,205.74413)"
       id="g39">
      <g
         id="g37" />
    </g>
  </g>
  <g
     fill="#000000"
     fill-opacity="1"
     id="g55"
     transform="translate(-65.335624,-108.47899)">
    <g
       transform="translate(121.38744,205.74413)"
       id="g53">
      <g
         id="g51" />
    </g>
  </g>
  <g
     fill="#000000"
     fill-opacity="1"
     id="g69"
     transform="translate(-65.335624,-108.47899)">
    <g
       transform="translate(151.65679,205.74413)"
       id="g67">
      <g
         id="g65" />
    </g>
  </g>
  <g
     fill="#000000"
     fill-opacity="1"
     id="g83"
     transform="translate(-65.335624,-108.47899)">
    <g
       transform="translate(181.1827,205.74413)"
       id="g81">
      <g
         id="g79" />
    </g>
  </g>
  <g
     fill="#000000"
     fill-opacity="1"
     id="g97"
     transform="translate(-65.335624,-108.47899)">
    <g
       transform="translate(209.79456,205.74413)"
       id="g95">
      <g
         id="g93" />
    </g>
  </g>
  <path
     id="rect113"
     style="fill:none;stroke-width:0.75"
     d="m -1.0104291,31.916033 v 46.519043 c 0.43107503,0.0012 0.86245303,8.7e-5 1.29345703,0 0.557625,-1.7e-5 1.11522697,0.0015 1.67285097,0.0015 0.622103,-3.5e-5 1.244109,-0.0015 1.866211,-0.0015 0.477773,-2e-6 0.954845,-2e-6 1.432617,0 h 2.292481 2.8315431 4.768066 4.189454 4.16748 2.929688 2.746582 4.879394 1.750488 c 0.06286,-0.0044 0.127307,-0.01266 0.1875,-0.01025 0.141593,6.99e-4 0.283219,0.0064 0.424805,0.01025 h 1.467773 c 0.05763,-0.0031 0.115216,0.0016 0.172852,-0.0029 0.623122,-0.04269 1.185754,-0.08067 1.749023,-0.07617 0.358151,0.0029 0.722724,0.03256 1.095704,0.0791 h 1.974609 4.691895 2.772948 2.261719 3.357422 2.10791 3.600586 3.171387 2.4375 1.324218 1.252441 2.307129 2.025881 1.501462 1.233398 1.23633 1.79883 2.267572 5.373051 6.71777 1.20117 1.44581 2.18115 1.729982 0.94189 0.50244 c 0.43375,0.105486 0.55838,0.106934 0.68409,0.106934 h 0.24462 c 0.002,0 0.004,3.57e-4 0.006,0 0.0192,-0.0029 0.0482,-0.01627 0.0484,0 3e-5,0.0041 -0.003,0.01042 -0.003,0.01465 0.004,9e-4 0.007,0.0019 0.0103,0.0029 7.5e-4,-0.005 -7.5e-4,-0.01271 0,-0.01758 0.0153,-0.0672 0.13765,0 0.20655,0 h 0.74267 0.48194 0.7163 0.64014 0.76318 0.79834 1.17773 2.03614 1.30957 1.52344 1.34766 1.76952 1.31983 1.89844 0.89794 1.36231 1.11328 1.3462 0.85839 0.92286 0.94921 0.91553 1.09424 1.48388 1.04883 1.51904 0.90821 1.21582 1.24218 1.45606 1.4414 1.57179 1.82812 1.16748 0.96533 0.91553 1.21875 1.24658 0.79248 1.24658 1.16309 1.38427 1.29054 1.18798 1.24219 1.13818 0.87891 1.12207 1.35498 0.85254 1.39746 1.06494 1.09717 1.11621 1.09277 0.69287 0.77052 0.58886 0.11426 V 31.916033 Z M 103.31428,78.559587 c -0.0255,0.135394 0.008,0.314882 0.044,0.493652 h 0.0205 c 0.0475,-0.238663 0.0744,-0.448379 -0.0644,-0.493652 z m -0.0103,-0.0029 c -0.0158,-0.004 -0.0255,-0.01465 -0.0455,-0.01465 -0.21021,0 -0.16564,0.239753 -0.0908,0.51123 h 0.0307 c 0.0516,-0.178553 0.10304,-0.35873 0.10546,-0.496582 z M 0.85138693,79.584978 c -0.06377,0.434478 -0.156641,0.910179 -0.27539,1.429687 0.139822,0.107959 0.25083,0.198379 0.373535,0.298828 -0.109273,-0.705411 -0.125529,-1.322731 0.08203,-1.728515 -0.06006,-1e-6 -0.12011597,10e-7 -0.18017597,0 z M 168.12189,79.690447 c 0.47626,0.241073 0.94973,0.486519 1.41211,0.752929 0.0844,0.04861 0.12986,0.150539 0.16406,0.2417 0.0344,0.09139 0.053,0.139214 0.0835,0.219726 0.18044,-0.03203 0.3613,-0.06154 0.54199,-0.09229 v -1.122069 h -0.11426 -0.58886 -0.77051 -0.69288 z m -0.0293,0.75 c -0.11404,0.274773 -0.23647,0.545928 -0.35157,0.820312 0.15887,-0.02672 0.31731,-0.05605 0.47607,-0.0835 -0.0415,-0.245674 -0.083,-0.491143 -0.1245,-0.736816 z m 0.63573,0.449706 c -0.15037,-0.02177 -0.27293,0.08489 -0.375,0.263673 0.21538,-0.03746 0.43073,-0.07463 0.646,-0.112794 -0.0237,-0.01887 -0.0445,-0.04028 -0.0688,-0.0586 -0.0716,-0.05386 -0.139,-0.08315 -0.20215,-0.09228 z M 0.52619193,81.235857 c -0.0042,0.01802 -0.009,0.03615 -0.01318,0.0542 0.03655,0.07282 0.05165,0.128534 0.0542,0.203614 0.06468,0.148571 0.120752,0.33952 0.166992,0.561035 0.168701,0.121443 0.32015797,0.247727 0.42919897,0.379395 -0.05293,-0.235112 -0.101324,-0.4665 -0.14502,-0.692875 -0.0799,-0.03878 -0.09994,-0.03876 -0.20214797,-0.09229 -0.06035,-0.08246 -0.18189,-0.257622 -0.290039,-0.413086 z m 0.208008,0.818847 c -0.04389,-0.03159 -0.093,-0.06015 -0.13916,-0.09082 0.0048,0.04787 0.01321,0.104844 0.02051,0.162598 l 0.152343,0.139159 c -0.01259,-0.07164 -0.0192,-0.141519 -0.03369,-0.210937 z m -0.13916,-0.09082 c -0.02427,-0.242347 -0.02488,-0.383445 -0.02783,-0.470215 -0.01466,-0.03368 -0.02691,-0.07795 -0.04248,-0.105468 -0.0073,-0.01295 -0.01722,-0.02398 -0.0249,-0.03662 -0.03679,0.158856 -0.07325,0.317634 -0.109864,0.477539 0.07115,0.04302 0.136912,0.08947 0.205078,0.134766 z M 168.25079,81.376482 c -0.16457,0.455002 -0.22678,1.15792 -0.20507,1.851562 0.0646,0.01618 0.13514,0.02119 0.21386,0.01172 0.0893,-0.0738 0.17578,-0.151076 0.26807,-0.221192 -0.0925,-0.54748 -0.18436,-1.09461 -0.27686,-1.64209 z m -1.50585,2.520996 c -0.20955,0.01262 -0.32584,0.07505 -0.20655,0.200683 0.14502,0.152721 0.30288,0.290497 0.46583,0.421875 0.0918,-0.124515 0.18503,-0.248185 0.29296,-0.361816 0.009,-0.0096 0.0185,-0.01962 0.0278,-0.0293 9e-5,-0.05616 1e-5,-0.1123 0,-0.168458 -0.20676,-0.04186 -0.42007,-0.07263 -0.58008,-0.06299 z M 6.6829299,85.552751 c -0.197293,0.1006 0.04682,0.540127 0.461426,1.07959 0.14483,-0.06817 0.295595,-0.128364 0.449707,-0.183105 -0.02782,-0.05442 -0.06133,-0.106212 -0.08496,-0.162598 -0.02896,-0.06909 -0.02003,-0.148006 -0.02637,-0.222656 -0.0087,-0.10184 -0.01474,-0.204015 -0.0205,-0.306153 -0.152579,-0.08647 -0.312462,-0.160539 -0.490723,-0.205078 z M 160.93976,88.303728 c -0.0175,0.0143 -0.0178,0.103855 0.007,0.303223 0.003,0.02465 0.01,0.04866 0.0132,0.07325 0.034,0.05296 0.0612,0.0971 0.0952,0.152343 0.0182,0.0033 0.10951,0.01718 0.11718,0.01904 -0.10446,-0.321074 -0.19598,-0.578037 -0.2329,-0.547851 z m 0.14209,0.571288 c 0.019,0.031 0.0399,0.06371 0.0557,0.08936 h 0.001 c 0.0242,0.0065 0.0473,0.01377 0.0747,0.01904 -0.0144,-0.04609 -0.0171,-0.05552 -0.0323,-0.10254 -0.0395,-0.0023 -0.056,-0.0039 -0.0996,-0.0058 z m 0.0572,0.08936 c 0.0109,0.01759 0.0295,0.04782 0.0381,0.06152 0.0432,0.06885 0.0761,0.140965 0.11573,0.210937 -0.0251,-0.08485 -0.0416,-0.13679 -0.0762,-0.247558 -0.0262,-0.008 -0.0512,-0.0165 -0.0776,-0.0249 z m 0.15381,1.104492 c 0.002,0.0068 0.004,0.01369 0.006,0.0205 0.0115,0.01117 0.0137,0.01117 0.0249,0.02197 -0.017,-0.02544 -0.0127,-0.01508 -0.0308,-0.04248 z m 0.10108,0.345704 c 0.0142,0.04825 0.0272,0.0967 0.041,0.145019 0.0308,-9.75e-4 0.0656,-0.0033 0.0967,-0.0044 3.6e-4,-0.03431 -1.6e-4,-0.08184 0,-0.108398 -0.0508,-0.01054 -0.089,-0.02154 -0.1377,-0.03223 z m 0.43213,0.09668 c 0.003,0.0113 0.007,0.02237 0.0103,0.03369 0.0548,-0.0022 0.10997,-0.002 0.16553,-0.0044 -0.0568,-0.0098 -0.12108,-0.01928 -0.17578,-0.02929 z m 0.38085,0.503906 c 0.0145,0.0215 0.0723,0.12799 0.0879,0.153809 0.39459,0.01912 0.76197,0.0401 1.09131,0.06152 -0.34803,-0.07571 -0.7086,-0.151667 -1.17921,-0.215332 z m 3.72071,2.953129 c 0.147,0.053 0.52069,0.19041 0.78223,0.2915 -0.0156,-0.0203 -0.0331,-0.0568 -0.0484,-0.0776 -0.27322,-0.0951 -0.52598,-0.16605 -0.73388,-0.21387 z m 2.94433,7.625973 c -0.003,0.0771 -0.007,0.15579 -0.0146,0.23731 0.002,0.0336 0.0119,0.0914 0.0132,0.12304 0.14656,0.60887 0.0889,0.18258 10e-4,-0.36035 z m -0.14062,0.88477 c -0.0248,0.077 -0.0463,0.15458 -0.0659,0.23291 -0.0195,0.0778 0.0449,-0.12419 0.0718,-0.22998 -0.002,-7.3e-4 -0.004,-0.002 -0.006,-0.003 z m 0.0644,0.0264 c -0.10478,0.28194 -0.49451,0.66381 -1.00928,1.12646 -0.12151,0.2197 -0.2543,0.42036 -0.39844,0.59766 h 2.10645 0.82911 v -1.30664 c -0.0199,-0.006 -0.0401,-0.0106 -0.0601,-0.0161 -0.0886,-0.0238 -1.40471,-0.37697 -1.40772,-0.37793 -0.0203,-0.007 -0.0398,-0.0163 -0.0601,-0.0234 z m -168.59325607,0.022 c -0.28529,0.48366 -0.56549,0.97143 -0.884766,1.43408 -0.102609,0.15394 -0.164949,0.24461 -0.247558,0.36914 0.134854,-0.0316 0.269316,-0.0666 0.407226,-0.082 0.286,-0.0319 0.574213,-0.0391 0.861328,-0.0586 0.251539,0.003 0.502963,0.005 0.75439497,0.0102 -0.20729197,-0.35688 -0.51392397,-0.95528 -0.89062497,-1.67285 z M 170.26935,102.88484 c -0.0187,-0.007 0.0301,0.0151 0.0542,0.0264 v -0.003 c -0.0181,-0.008 -0.0359,-0.0161 -0.0542,-0.0234 z m -10.875,0.35889 c 0.19701,0.60806 0.31153,0.79612 0.86133,0.98438 -0.21398,-0.21617 -0.53092,-0.58848 -0.86133,-0.98438 z M 0.42951193,105.81307 c -0.20105,0.008 -0.403527,0.001 -0.603515,0.0234 -0.135585,0.0149 -0.264278,0.0618 -0.398438,0.0864 -0.150385,0.0276 -0.293895,0.0467 -0.43798803,0.0645 v 26.39648 H 170.32355 v -26.52832 h -0.8291 -2.56201 -1.3169 -1.67431 -1.27734 -0.7837 -1.00195 -1.20997 -1.20263 -1.3081 -1.22461 -1.22608 -1.87793 -1.43994 -1.10009 -1.68165 -1.93066 -1.22021 -2.19141 -1.01953 -3.06885 -4.22754 -2.98242 -3.00293 -3.08643 -3.479 -4.39453 -4.14698 -8.47998 -4.85888 -5.717282 -7.46924 -6.473143 -8.069827 -9.418944 -9.52002 -9.599121 -4.984863 -5.682129 -6.537598 -2.758301 c -1.502391,0 -3.004927,-1e-5 -4.507324,0 -1.618866,0 -3.238554,-2e-5 -4.857422,0 -1.580833,0 -3.160866,-0.001 -4.741699,-0.002 -0.8387801,-1.1e-4 -1.6778211,10e-4 -2.5166021,0.002 -1.360177,-0.001 -2.720924,-0.01 -4.081054,0.004 -1.052319,0.008 -2.101991,-0.0259 -3.15380897,-0.0469 z" />
  <path
     id="rect115"
     style="fill:none;stroke-width:0.75"
     d="m -1.0104291,31.916033 v 46.519043 c 0.43107503,0.0012 0.86245303,8.7e-5 1.29345703,0 0.557625,-1.7e-5 1.11522697,0.0015 1.67285097,0.0015 0.622103,-3.5e-5 1.244109,-0.0015 1.866211,-0.0015 0.477773,-2e-6 0.954845,-2e-6 1.432617,0 h 2.292481 2.8315431 4.768066 4.189454 4.16748 2.929688 2.746582 4.879394 1.750488 c 0.06286,-0.0044 0.127307,-0.01266 0.1875,-0.01025 0.141593,6.99e-4 0.283219,0.0064 0.424805,0.01025 h 1.467773 c 0.05763,-0.0031 0.115216,0.0016 0.172852,-0.0029 0.623122,-0.04269 1.185754,-0.08067 1.749023,-0.07617 0.358151,0.0029 0.722724,0.03256 1.095704,0.0791 h 1.974609 4.691895 2.772948 2.261719 3.357422 2.10791 3.600586 3.171387 2.4375 1.324218 1.252441 2.307129 2.025881 1.501462 1.233398 1.23633 1.79883 2.267572 5.373051 6.71777 1.20117 1.44581 2.18115 1.729982 0.94189 0.50244 c 0.43375,0.105486 0.55838,0.106934 0.68409,0.106934 h 0.24462 c 0.002,0 0.004,3.57e-4 0.006,0 0.0192,-0.0029 0.0482,-0.01627 0.0484,0 3e-5,0.0041 -0.003,0.01042 -0.003,0.01465 0.004,9e-4 0.007,0.0019 0.0103,0.0029 7.5e-4,-0.005 -7.5e-4,-0.01271 0,-0.01758 0.0153,-0.0672 0.13765,0 0.20655,0 h 0.74267 0.48194 0.7163 0.64014 0.76318 0.79834 1.17773 2.03614 1.30957 1.52344 1.34766 1.76952 1.31983 1.89844 0.89794 1.36231 1.11328 1.3462 0.85839 0.92286 0.94921 0.91553 1.09424 1.48388 1.04883 1.51904 0.90821 1.21582 1.24218 1.45606 1.4414 1.57179 1.82812 1.16748 0.96533 0.91553 1.21875 1.24658 0.79248 1.24658 1.16309 1.38427 1.29054 1.18798 1.24219 1.13818 0.87891 1.12207 1.35498 0.85254 1.39746 1.06494 1.09717 1.11621 1.09277 0.69287 0.77052 0.58886 0.11426 V 31.916033 Z M 103.31428,78.559587 c -0.0255,0.135394 0.008,0.314882 0.044,0.493652 h 0.0205 c 0.0475,-0.238663 0.0744,-0.448379 -0.0644,-0.493652 z m -0.0103,-0.0029 c -0.0158,-0.004 -0.0255,-0.01465 -0.0455,-0.01465 -0.21021,0 -0.16564,0.239753 -0.0908,0.51123 h 0.0307 c 0.0516,-0.178553 0.10304,-0.35873 0.10546,-0.496582 z M 0.85138693,79.584978 c -0.06377,0.434478 -0.156641,0.910179 -0.27539,1.429687 0.139822,0.107959 0.25083,0.198379 0.373535,0.298828 -0.109273,-0.705411 -0.125529,-1.322731 0.08203,-1.728515 -0.06006,-1e-6 -0.12011597,10e-7 -0.18017597,0 z M 168.12189,79.690447 c 0.47626,0.241073 0.94973,0.486519 1.41211,0.752929 0.0844,0.04861 0.12986,0.150539 0.16406,0.2417 0.0344,0.09139 0.053,0.139214 0.0835,0.219726 0.18044,-0.03203 0.3613,-0.06154 0.54199,-0.09229 v -1.122069 h -0.11426 -0.58886 -0.77051 -0.69288 z m -0.0293,0.75 c -0.11404,0.274773 -0.23647,0.545928 -0.35157,0.820312 0.15887,-0.02672 0.31731,-0.05605 0.47607,-0.0835 -0.0415,-0.245674 -0.083,-0.491143 -0.1245,-0.736816 z m 0.63573,0.449706 c -0.15037,-0.02177 -0.27293,0.08489 -0.375,0.263673 0.21538,-0.03746 0.43073,-0.07463 0.646,-0.112794 -0.0237,-0.01887 -0.0445,-0.04028 -0.0688,-0.0586 -0.0716,-0.05386 -0.139,-0.08315 -0.20215,-0.09228 z M 0.52619193,81.235857 c -0.0042,0.01802 -0.009,0.03615 -0.01318,0.0542 0.03655,0.07282 0.05165,0.128534 0.0542,0.203614 0.06468,0.148571 0.120752,0.33952 0.166992,0.561035 0.168701,0.121443 0.32015797,0.247727 0.42919897,0.379395 -0.05293,-0.235112 -0.101324,-0.4665 -0.14502,-0.692875 -0.0799,-0.03878 -0.09994,-0.03876 -0.20214797,-0.09229 -0.06035,-0.08246 -0.18189,-0.257622 -0.290039,-0.413086 z m 0.208008,0.818847 c -0.04389,-0.03159 -0.093,-0.06015 -0.13916,-0.09082 0.0048,0.04787 0.01321,0.104844 0.02051,0.162598 l 0.152343,0.139159 c -0.01259,-0.07164 -0.0192,-0.141519 -0.03369,-0.210937 z m -0.13916,-0.09082 c -0.02427,-0.242347 -0.02488,-0.383445 -0.02783,-0.470215 -0.01466,-0.03368 -0.02691,-0.07795 -0.04248,-0.105468 -0.0073,-0.01295 -0.01722,-0.02398 -0.0249,-0.03662 -0.03679,0.158856 -0.07325,0.317634 -0.109864,0.477539 0.07115,0.04302 0.136912,0.08947 0.205078,0.134766 z M 168.25079,81.376482 c -0.16457,0.455002 -0.22678,1.15792 -0.20507,1.851562 0.0646,0.01618 0.13514,0.02119 0.21386,0.01172 0.0893,-0.0738 0.17578,-0.151076 0.26807,-0.221192 -0.0925,-0.54748 -0.18436,-1.09461 -0.27686,-1.64209 z m -1.50585,2.520996 c -0.20955,0.01262 -0.32584,0.07505 -0.20655,0.200683 0.14502,0.152721 0.30288,0.290497 0.46583,0.421875 0.0918,-0.124515 0.18503,-0.248185 0.29296,-0.361816 0.009,-0.0096 0.0185,-0.01962 0.0278,-0.0293 9e-5,-0.05616 1e-5,-0.1123 0,-0.168458 -0.20676,-0.04186 -0.42007,-0.07263 -0.58008,-0.06299 z M 6.6829299,85.552751 c -0.197293,0.1006 0.04682,0.540127 0.461426,1.07959 0.14483,-0.06817 0.295595,-0.128364 0.449707,-0.183105 -0.02782,-0.05442 -0.06133,-0.106212 -0.08496,-0.162598 -0.02896,-0.06909 -0.02003,-0.148006 -0.02637,-0.222656 -0.0087,-0.10184 -0.01474,-0.204015 -0.0205,-0.306153 -0.152579,-0.08647 -0.312462,-0.160539 -0.490723,-0.205078 z M 160.93976,88.303728 c -0.0175,0.0143 -0.0178,0.103855 0.007,0.303223 0.003,0.02465 0.01,0.04866 0.0132,0.07325 0.034,0.05296 0.0612,0.0971 0.0952,0.152343 0.0182,0.0033 0.10951,0.01718 0.11718,0.01904 -0.10446,-0.321074 -0.19598,-0.578037 -0.2329,-0.547851 z m 0.14209,0.571288 c 0.019,0.031 0.0399,0.06371 0.0557,0.08936 h 0.001 c 0.0242,0.0065 0.0473,0.01377 0.0747,0.01904 -0.0144,-0.04609 -0.0171,-0.05552 -0.0323,-0.10254 -0.0395,-0.0023 -0.056,-0.0039 -0.0996,-0.0058 z m 0.0572,0.08936 c 0.0109,0.01759 0.0295,0.04782 0.0381,0.06152 0.0432,0.06885 0.0761,0.140965 0.11573,0.210937 -0.0251,-0.08485 -0.0416,-0.13679 -0.0762,-0.247558 -0.0262,-0.008 -0.0512,-0.0165 -0.0776,-0.0249 z m 0.15381,1.104492 c 0.002,0.0068 0.004,0.01369 0.006,0.0205 0.0115,0.01117 0.0137,0.01117 0.0249,0.02197 -0.017,-0.02544 -0.0127,-0.01508 -0.0308,-0.04248 z m 0.10108,0.345704 c 0.0142,0.04825 0.0272,0.0967 0.041,0.145019 0.0308,-9.75e-4 0.0656,-0.0033 0.0967,-0.0044 3.6e-4,-0.03431 -1.6e-4,-0.08184 0,-0.108398 -0.0508,-0.01054 -0.089,-0.02154 -0.1377,-0.03223 z m 0.43213,0.09668 c 0.003,0.0113 0.007,0.02237 0.0103,0.03369 0.0548,-0.0022 0.10997,-0.002 0.16553,-0.0044 -0.0568,-0.0098 -0.12108,-0.01928 -0.17578,-0.02929 z m 0.38085,0.503906 c 0.0145,0.0215 0.0723,0.12799 0.0879,0.153809 0.39459,0.01912 0.76197,0.0401 1.09131,0.06152 -0.34803,-0.07571 -0.7086,-0.151667 -1.17921,-0.215332 z m 3.72071,2.953129 c 0.147,0.053 0.52069,0.19041 0.78223,0.2915 -0.0156,-0.0203 -0.0331,-0.0568 -0.0484,-0.0776 -0.27322,-0.0951 -0.52598,-0.16605 -0.73388,-0.21387 z m 2.94433,7.625973 c -0.003,0.0771 -0.007,0.15579 -0.0146,0.23731 0.002,0.0336 0.0119,0.0914 0.0132,0.12304 0.14656,0.60887 0.0889,0.18258 10e-4,-0.36035 z m -0.14062,0.88477 c -0.0248,0.077 -0.0463,0.15458 -0.0659,0.23291 -0.0195,0.0778 0.0449,-0.12419 0.0718,-0.22998 -0.002,-7.3e-4 -0.004,-0.002 -0.006,-0.003 z m 0.0644,0.0264 c -0.10478,0.28194 -0.49451,0.66381 -1.00928,1.12646 -0.12151,0.2197 -0.2543,0.42036 -0.39844,0.59766 h 2.10645 0.82911 v -1.30664 c -0.0199,-0.006 -0.0401,-0.0106 -0.0601,-0.0161 -0.0886,-0.0238 -1.40471,-0.37697 -1.40772,-0.37793 -0.0203,-0.007 -0.0398,-0.0163 -0.0601,-0.0234 z m -168.59325607,0.022 c -0.28529,0.48366 -0.56549,0.97143 -0.884766,1.43408 -0.102609,0.15394 -0.164949,0.24461 -0.247558,0.36914 0.134854,-0.0316 0.269316,-0.0666 0.407226,-0.082 0.286,-0.0319 0.574213,-0.0391 0.861328,-0.0586 0.251539,0.003 0.502963,0.005 0.75439497,0.0102 -0.20729197,-0.35688 -0.51392397,-0.95528 -0.89062497,-1.67285 z M 170.26935,102.88484 c -0.0187,-0.007 0.0301,0.0151 0.0542,0.0264 v -0.003 c -0.0181,-0.008 -0.0359,-0.0161 -0.0542,-0.0234 z m -10.875,0.35889 c 0.19701,0.60806 0.31153,0.79612 0.86133,0.98438 -0.21398,-0.21617 -0.53092,-0.58848 -0.86133,-0.98438 z M 0.42951193,105.81307 c -0.20105,0.008 -0.403527,0.001 -0.603515,0.0234 -0.135585,0.0149 -0.264278,0.0618 -0.398438,0.0864 -0.150385,0.0276 -0.293895,0.0467 -0.43798803,0.0645 v 26.39648 H 170.32355 v -26.52832 h -0.8291 -2.56201 -1.3169 -1.67431 -1.27734 -0.7837 -1.00195 -1.20997 -1.20263 -1.3081 -1.22461 -1.22608 -1.87793 -1.43994 -1.10009 -1.68165 -1.93066 -1.22021 -2.19141 -1.01953 -3.06885 -4.22754 -2.98242 -3.00293 -3.08643 -3.479 -4.39453 -4.14698 -8.47998 -4.85888 -5.717282 -7.46924 -6.473143 -8.069827 -9.418944 -9.52002 -9.599121 -4.984863 -5.682129 -6.537598 -2.758301 c -1.502391,0 -3.004927,-1e-5 -4.507324,0 -1.618866,0 -3.238554,-2e-5 -4.857422,0 -1.580833,0 -3.160866,-0.001 -4.741699,-0.002 -0.8387801,-1.1e-4 -1.6778211,10e-4 -2.5166021,0.002 -1.360177,-0.001 -2.720924,-0.01 -4.081054,0.004 -1.052319,0.008 -2.101991,-0.0259 -3.15380897,-0.0469 z" />
  <path
     id="rect213"
     style="fill:none;fill-opacity:1;stroke-width:0.75"
     d="m 103.16194,79.021013 c 0.003,0.01168 0.004,0.02198 0.006,0.03223 h 0.0307 c 0.003,-0.0107 0.006,-0.02136 0.009,-0.03223 z m 0.19042,0 c 0.002,0.01088 0.004,0.02153 0.006,0.03223 h 0.0205 c 0.002,-0.01032 0.002,-0.02072 0.005,-0.03223 z M 0.85138693,79.584978 c -0.06377,0.434478 -0.156641,0.910179 -0.27539,1.429687 0.139822,0.107959 0.25083,0.198379 0.373535,0.298828 -0.109273,-0.705411 -0.125529,-1.322731 0.08203,-1.728515 -0.06006,-1e-6 -0.12011597,10e-7 -0.18017597,0 z M 168.12189,79.690447 c 0.47626,0.241073 0.94973,0.486519 1.41211,0.752929 0.0844,0.04861 0.12986,0.150539 0.16406,0.2417 0.0344,0.09139 0.053,0.139214 0.0835,0.219726 0.47644,-0.08459 0.95404,-0.16341 1.43115,-0.243164 -0.0613,-0.143592 -0.13231,-0.280258 -0.20215,-0.417481 -0.13207,0.03413 -0.26633,0.06835 -0.56689,0.130371 -0.1506,0.03108 0.28388,-0.129318 0.43652,-0.147949 0.0429,-0.0053 0.0756,-0.0041 0.11719,-0.0088 -0.009,-0.0172 -0.0159,-0.03565 -0.0249,-0.05273 -0.15346,-0.02334 -0.27539,-0.03793 -0.45996,-0.07031 -0.13045,-0.02289 0.32596,-0.187099 0.39111,-0.07178 0.0256,0.04533 0.0445,0.09585 0.0689,0.14209 0.0728,0.01108 0.15188,0.02442 0.21826,0.03369 0.30413,-0.09296 -0.0915,-0.05361 0.58447,-0.10254 0.14741,-0.0023 0.33036,0.01004 0.42041,0.0088 0.0103,-0.004 0.0205,-0.0065 0.0307,-0.01025 v -0.404297 h -0.46436 -0.95654 -0.59619 -0.58887 -0.77051 -0.69287 z m 2.87549,0.527343 c 0.005,0.0087 0.009,0.01765 0.0132,0.02637 0.0454,-0.01175 0.13884,-0.03186 0.16992,-0.04102 -0.0622,0.0058 -0.11806,0.0074 -0.18311,0.01465 z m 0.67676,-0.05273 c -0.14312,0.0021 -0.31046,0.02233 -0.46875,0.03662 0.2494,0.03464 0.45607,0.0591 0.62548,0.07325 0.0694,-0.03777 0.1385,-0.06661 0.20802,-0.09814 -0.11805,-0.01 -0.23825,-0.01356 -0.36475,-0.01172 z m -3.58154,0.275391 c -0.11404,0.274774 -0.23647,0.545928 -0.35157,0.820312 0.15887,-0.02672 0.31731,-0.05605 0.47607,-0.0835 -0.0415,-0.245673 -0.083,-0.491142 -0.1245,-0.736816 z m 0.63573,0.449707 c -0.15037,-0.02177 -0.27293,0.08489 -0.375,0.263672 0.21538,-0.03746 0.43073,-0.07462 0.646,-0.112793 -0.0237,-0.01887 -0.0445,-0.04028 -0.0688,-0.0586 -0.0716,-0.05387 -0.139,-0.08315 -0.20215,-0.09228 z m 2.29395,0.05127 c -0.19243,0.206049 -0.35011,0.447835 -0.49365,0.703125 0.0164,-0.01153 0.0335,-0.0221 0.0498,-0.03369 0.13918,-0.232009 0.28065,-0.461821 0.44385,-0.669435 z M 0.52619193,81.235857 c -0.0042,0.01802 -0.009,0.03615 -0.01318,0.0542 0.03655,0.07282 0.05165,0.128534 0.0542,0.203614 0.06468,0.148571 0.120752,0.33952 0.166992,0.561035 0.168701,0.121443 0.32015797,0.247727 0.42919897,0.379395 -0.05293,-0.235112 -0.101324,-0.4665 -0.14502,-0.692875 -0.0799,-0.03878 -0.09994,-0.03876 -0.20214797,-0.09229 -0.06035,-0.08246 -0.18189,-0.257622 -0.290039,-0.413086 z m 0.208008,0.818847 c -0.04389,-0.03159 -0.093,-0.06015 -0.13916,-0.09082 0.0048,0.04787 0.01321,0.104844 0.02051,0.162598 l 0.152343,0.139159 c -0.01259,-0.07164 -0.0192,-0.141519 -0.03369,-0.210937 z m -0.13916,-0.09082 c -0.02427,-0.242347 -0.02488,-0.383445 -0.02783,-0.470215 -0.01466,-0.03368 -0.02691,-0.07795 -0.04248,-0.105468 -0.0073,-0.01295 -0.01722,-0.02398 -0.0249,-0.03662 -0.03679,0.158856 -0.07325,0.317634 -0.109864,0.477539 0.07115,0.04302 0.136912,0.08947 0.205078,0.134766 z M 168.25079,81.376482 c -0.16457,0.455002 -0.22678,1.15792 -0.20507,1.851562 0.0646,0.01618 0.13514,0.02119 0.21386,0.01172 0.0893,-0.0738 0.17578,-0.151076 0.26807,-0.221192 -0.0925,-0.54748 -0.18436,-1.09461 -0.27686,-1.64209 z m -1.50585,2.520996 c -0.20955,0.01262 -0.32584,0.07505 -0.20655,0.200683 0.14502,0.152721 0.30288,0.290497 0.46583,0.421875 0.0918,-0.124515 0.18503,-0.248185 0.29296,-0.361816 0.009,-0.0096 0.0185,-0.01962 0.0278,-0.0293 9e-5,-0.05616 1e-5,-0.1123 0,-0.168458 -0.20676,-0.04186 -0.42007,-0.07263 -0.58008,-0.06299 z M 6.6829299,85.552751 c -0.197293,0.1006 0.04682,0.540127 0.461426,1.07959 0.14483,-0.06817 0.295595,-0.128364 0.449707,-0.183105 -0.02782,-0.05442 -0.06133,-0.106212 -0.08496,-0.162598 -0.02896,-0.06909 -0.02003,-0.148006 -0.02637,-0.222656 -0.0087,-0.10184 -0.01474,-0.204015 -0.0205,-0.306153 -0.152579,-0.08647 -0.312462,-0.160539 -0.490723,-0.205078 z M 160.93976,88.303728 c -0.0175,0.0143 -0.0178,0.103855 0.007,0.303223 0.003,0.02465 0.01,0.04866 0.0132,0.07325 0.034,0.05296 0.0612,0.0971 0.0952,0.152343 0.0182,0.0033 0.10951,0.01718 0.11718,0.01904 -0.10446,-0.321074 -0.19598,-0.578037 -0.2329,-0.547851 z m 0.14209,0.571288 c 0.019,0.031 0.0399,0.06371 0.0557,0.08936 h 0.001 c 0.0242,0.0065 0.0473,0.01377 0.0747,0.01904 -0.0144,-0.04609 -0.0171,-0.05552 -0.0323,-0.10254 -0.0395,-0.0023 -0.056,-0.0039 -0.0996,-0.0058 z m 0.0572,0.08936 c 0.0109,0.01759 0.0295,0.04782 0.0381,0.06152 0.0432,0.06885 0.0761,0.140965 0.11573,0.210937 -0.0251,-0.08485 -0.0416,-0.13679 -0.0762,-0.247558 -0.0262,-0.008 -0.0512,-0.0165 -0.0776,-0.0249 z m 0.15381,1.104492 c 0.002,0.0068 0.004,0.01369 0.006,0.0205 0.0115,0.01117 0.0137,0.01117 0.0249,0.02197 -0.017,-0.02544 -0.0127,-0.01508 -0.0308,-0.04248 z m 0.10108,0.345704 c 0.0142,0.04825 0.0272,0.0967 0.041,0.145019 0.0308,-9.75e-4 0.0656,-0.0033 0.0967,-0.0044 3.6e-4,-0.03431 -1.6e-4,-0.08184 0,-0.108398 -0.0508,-0.01054 -0.089,-0.02154 -0.1377,-0.03223 z m 0.43213,0.09668 c 0.003,0.0113 0.007,0.02237 0.0103,0.03369 0.0548,-0.0022 0.10997,-0.002 0.16553,-0.0044 -0.0568,-0.0098 -0.12108,-0.01928 -0.17578,-0.02929 z m 9.26806,0.02344 c -0.0366,-5.2e-4 -0.0365,0.0038 0.0205,0.01611 0.11475,0.02475 0.23133,0.03848 0.34863,0.05127 v -0.03955 c -0.16066,-0.01453 -0.30826,-0.02697 -0.36914,-0.02783 z m -8.88721,0.480468 c 0.0145,0.0215 0.0723,0.12799 0.0879,0.153809 0.39459,0.01912 0.76197,0.0401 1.09131,0.06152 -0.34803,-0.07571 -0.7086,-0.151667 -1.17921,-0.215332 z m 3.72071,2.953127 c 0.147,0.053 0.52069,0.19041 0.78223,0.2915 -0.0156,-0.0203 -0.0331,-0.0568 -0.0484,-0.0776 -0.27322,-0.0951 -0.52598,-0.16605 -0.73388,-0.21387 z m 5.80225,0.74707 c 0.006,0.0373 -0.001,-0.0104 0.005,0.0293 0.007,0.019 0.024,0.0765 0.019,0.0571 -0.0118,-0.0467 -0.0125,-0.0443 -0.0234,-0.0864 z m -2.85792,6.878903 c -0.003,0.0771 -0.007,0.15579 -0.0146,0.23731 0.002,0.0336 0.0119,0.0914 0.0132,0.12305 0.14656,0.60886 0.0889,0.18257 10e-4,-0.36036 z m 3.3545,0.14209 c -0.0835,0.18405 -0.0821,0.31709 0,0.42627 z m -3.49512,0.74268 c -0.0248,0.077 -0.0463,0.15459 -0.0659,0.23291 -0.0195,0.0778 0.0449,-0.12419 0.0718,-0.22998 -0.002,-7.3e-4 -0.004,-0.002 -0.006,-0.003 z m 0.0644,0.0264 c -0.10478,0.28195 -0.49451,0.66381 -1.00928,1.12646 -0.12151,0.2197 -0.2543,0.42036 -0.39844,0.59766 h 2.10645 2.73194 v -0.67676 c -0.2648,-0.0463 -0.56974,-0.0981 -0.65479,-0.12744 -0.34879,-0.12026 -0.68497,-0.27416 -1.02393,-0.42041 -0.0199,-0.003 -0.025,10e-4 -0.0366,-0.003 -0.0448,-0.0152 -0.0664,-0.031 -0.12745,-0.0615 -0.0405,-0.01 -0.0801,-0.0226 -0.12011,-0.0337 -0.0886,-0.0238 -1.40471,-0.37696 -1.40772,-0.37793 -0.0203,-0.007 -0.0398,-0.0163 -0.0601,-0.0234 z m 1.58789,0.43506 c 0.0137,0.003 0.0273,0.007 0.041,0.0102 -0.0519,-0.0218 -0.10302,-0.0451 -0.15527,-0.0659 -0.0394,-0.0157 0.0594,0.0283 0.11426,0.0557 z m 0.041,0.0102 c 0.0413,0.0174 0.0819,0.0364 0.12305,0.0542 0.0495,0.007 0.11925,0.0168 0.0908,0.006 -0.0691,-0.0266 -0.14185,-0.0424 -0.21387,-0.0601 z M 0.20246093,102.52736 c -0.28529,0.48366 -0.56549,0.97143 -0.884765,1.43408 -0.101859,0.15282 -0.163971,0.24241 -0.246094,0.36622 0.134509,-0.0304 0.268349,-0.0638 0.405762,-0.0791 0.286,-0.0319 0.574213,-0.0391 0.861328,-0.0586 0.251539,0.003 0.502962,0.005 0.75439397,0.0102 -0.20729097,-0.35689 -0.51392397,-0.95528 -0.89062497,-1.67286 z M 159.39435,103.24367 c 0.19701,0.60806 0.31153,0.79612 0.86133,0.98438 -0.21398,-0.21617 -0.53092,-0.58848 -0.86133,-0.98438 z" />
  <path
     id="rect215"
     style="fill:#000000;fill-opacity:1;stroke-width:0.75"
     d="m -4.3195111,100.4634 v 0.19775 c 0.045,0.01 0.08964,0.0198 0.134765,0.0293 v -0.11572 c -0.04388,-0.0372 -0.08944,-0.074 -0.134765,-0.11133 z" />
  <path
     id="rect217"
     style="fill:#000000;fill-opacity:1;stroke-width:0.75"
     d="m 175.52081,79.646501 c -0.024,0.0061 -0.0549,0.007 -0.0806,0.01172 v 0.03369 c 0.0271,0.01166 0.0537,0.02435 0.0806,0.03662 z" />
  <ellipse
     style="fill:none;stroke-width:0.75"
     id="path309"
     cx="82.278671"
     cy="75.871178"
     rx="98.116203"
     ry="60.092667" />
  <ellipse
     style="fill:none;stroke-width:0.958621"
     id="path313"
     cx="88.46489"
     cy="67.820244"
     rx="98.293587"
     ry="75.233307" />
</svg>
