<?xml version="1.0" encoding="UTF-8" standalone="no"?>
<svg
   xmlns:dc="http://purl.org/dc/elements/1.1/"
   xmlns:cc="http://creativecommons.org/ns#"
   xmlns:rdf="http://www.w3.org/1999/02/22-rdf-syntax-ns#"
   xmlns:svg="http://www.w3.org/2000/svg"
   xmlns="http://www.w3.org/2000/svg"
   width="307.12253"
   zoomAndPan="magnify"
   viewBox="0 0 230.3419 144.65812"
   height="192.8775"
   preserveAspectRatio="xMidYMid meet"
   version="1.0"
   id="svg376">
  <metadata
     id="metadata380">
    <rdf:RDF>
      <cc:Work
         rdf:about="">
        <dc:format>image/svg+xml</dc:format>
        <dc:type
           rdf:resource="http://purl.org/dc/dcmitype/StillImage" />
        <dc:title></dc:title>
      </cc:Work>
    </rdf:RDF>
  </metadata>
  <defs
     id="defs212">
    <g
       id="g207" />
    <clipPath
       id="id1">
      <path
         d="M 64.421875,182.54687 H 310.42187 v 31.5 H 64.421875 Z m 0,0"
         clip-rule="nonzero"
         id="path209" />
    </clipPath>
  </defs>
  <g
     fill="#000000"
     fill-opacity="1"
     id="g220"
     transform="translate(-72.156609,-127.67134)">
    <g
       transform="translate(76.199231,239.99998)"
       id="g218">
      <g
         id="g216">
        <path
           d="M 3,0 V -1.5 L 6,-2.546875 C 9.394531,-3.648438 11.09375,-6.5 11.09375,-11.09375 v -76.8125 c 0,-2 -0.226562,-3.597656 -0.671875,-4.796875 -0.449219,-1.195313 -1.621094,-2.195313 -3.515625,-3 L 3,-97.5 V -99 h 28.953125 l 27.75,72.59375 L 85.796875,-99 h 29.546875 v 1.5 l -2.39062,0.90625 c -1.90625,0.699219 -3.21094,1.671875 -3.90625,2.921875 -0.69922,1.25 -1.04688,2.875 -1.04688,4.875 v 78.453125 c 0,2 0.25,3.554688 0.75,4.65625 0.5,1.09375 1.69531,2.042969 3.59375,2.84375 l 3,1.34375 V 0 H 78 v -1.5 l 3.15625,-1.34375 c 1.894531,-0.800781 3.09375,-1.75 3.59375,-2.84375 0.5,-1.101562 0.75,-2.65625 0.75,-4.65625 v -33.75 L 85.796875,-87 54.453125,0 h -7.5 L 14.25,-85.953125 14.703125,-48.59375 v 37.796875 c 0,2.199219 0.320313,3.976563 0.96875,5.328125 0.65625,1.34375 1.929687,2.320312 3.828125,2.921875 L 22.796875,-1.5 V 0 Z m 0,0"
           id="path214" />
      </g>
    </g>
  </g>
  <g
     fill="#000000"
     fill-opacity="1"
     id="g228"
     transform="translate(-72.156609,-127.67134)">
    <g
       transform="translate(201.29926,239.99998)"
       id="g226">
      <g
         id="g224">
        <path
           d="m 1.203125,0 v -1.5 l 3.75,-1.34375 c 2,-0.800781 3.546875,-1.773438 4.640625,-2.921875 1.101562,-1.15625 2.003906,-2.785156 2.703125,-4.890625 l 30.90625,-88.640625 h 12.75 l 30.453125,89.25 c 0.789062,2.199219 1.6875,3.875 2.6875,5.03125 1,1.148437 2.550781,2.121094 4.65625,2.921875 L 95.546875,-1.5 V 0 h -38.09375 v -1.5 l 2.25,-0.75 c 2.09375,-0.800781 3.363281,-1.925781 3.8125,-3.375 0.457031,-1.445312 0.382813,-3.171875 -0.21875,-5.171875 L 56.25,-32.40625 H 22.953125 L 15.75,-11.25 c -0.699219,2.199219 -0.921875,3.949219 -0.671875,5.25 0.25,1.304688 1.421875,2.355469 3.515625,3.15625 L 21.90625,-1.5 V 0 Z M 24,-35.40625 H 55.34375 L 40.203125,-82.046875 Z m 0,0"
           id="path222" />
      </g>
    </g>
  </g>
  <g
     clip-path="url(#id1)"
     id="g232"
     transform="translate(-72.156609,-127.67134)">
    <path
       fill="#ffffff"
       d="M 64.433594,182.54687 H 310.40625 v 31.5 H 64.433594 v -31.5"
       fill-opacity="1"
       fill-rule="nonzero"
       id="path230" />
  </g>
  <g
     fill="#000000"
     fill-opacity="1"
     id="g240"
     transform="matrix(1.8310982,0,0,1.3745578,-237.8411,-202.67644)">
    <g
       transform="translate(136.71263,203.97689)"
       id="g238">
      <g
         id="g236">
        <path
           d="M 10.15625,-9.265625 V 0 H 9.09375 V -7.671875 L 5.671875,-3.265625 2.1875,-7.671875 V 0 H 1.140625 v -9.265625 h 1.21875 L 5.671875,-4.875 8.9375,-9.265625 Z m 0,0"
           id="path234" />
      </g>
    </g>
  </g>
  <g
     fill="#000000"
     fill-opacity="1"
     id="g248"
     transform="matrix(1.1377268,0,0,1.3745578,-85.675683,-200.37475)">
    <g
       transform="translate(157.37035,203.97689)"
       id="g246">
      <g
         id="g244">
        <path
           d="m -23.00099,-1.6744853 h -1.86091 l -1.810616,-2.6875 h -7.393346 l -1.835763,2.6875 h -1.86091 l 6.312006,-9.2656247 h 2.137532 z m -4.325359,-3.65625 -3.04284,-4.515625 -3.04284,4.515625 z m 0,0"
           id="path242"
           style="stroke-width:1.26864" />
      </g>
    </g>
  </g>
  <g
     fill="#000000"
     fill-opacity="1"
     id="g256"
     transform="matrix(1.8310982,0,0,1.3745578,-237.8411,-202.67644)">
    <g
       transform="translate(176.01319,203.97689)"
       id="g254">
      <g
         id="g252">
        <path
           d="M 2.1875,0 H 1.140625 v -9.265625 h 4.4375 c 0.9375,0 1.691406,0.261719 2.265625,0.78125 0.5625,0.511719 0.84375,1.214844 0.84375,2.109375 0,1.15625 -0.480469,1.949219 -1.4375,2.375 -0.273438,0.117188 -0.539062,0.203125 -0.796875,0.265625 L 8.890625,0 h -1.25 L 5.40625,-3.5625 H 2.1875 Z m 0,-4.546875 h 3.203125 c 0.988281,0 1.671875,-0.304687 2.046875,-0.921875 C 7.570312,-5.707031 7.640625,-6.007812 7.640625,-6.375 7.640625,-6.957031 7.4375,-7.421875 7.03125,-7.765625 6.632812,-8.109375 6.109375,-8.28125 5.453125,-8.28125 H 2.1875 Z m 0,0"
           id="path250" />
      </g>
    </g>
  </g>
  <g
     fill="#000000"
     fill-opacity="1"
     id="g264"
     transform="matrix(1.8310982,0,0,1.3745578,-237.8411,-202.67644)">
    <g
       transform="translate(194.75398,203.97689)"
       id="g262">
      <g
         id="g260">
        <path
           d="M 2.1875,-8.265625 V -5.15625 H 7.34375 V -4.125 H 2.1875 v 3.109375 H 7.953125 V 0 h -6.8125 v -9.265625 h 6.8125 v 1 z m 0,0"
           id="path258" />
      </g>
    </g>
  </g>
  <g
     fill="#000000"
     fill-opacity="1"
     id="g272"
     transform="matrix(1.8310982,0,0,1.3745578,-237.8411,-202.67644)">
    <g
       transform="translate(212.64125,203.97689)"
       id="g270">
      <g
         id="g268">
        <path
           d="m 2.1875,-9.265625 v 8.25 H 7.234375 V 0 h -6.09375 v -9.265625 z m 0,0"
           id="path266" />
      </g>
    </g>
  </g>
  <g
     fill="#000000"
     fill-opacity="1"
     id="g280"
     transform="matrix(1.8310982,0,0,1.3745578,-237.8411,-202.67644)">
    <g
       transform="translate(229.47911,203.97689)"
       id="g278">
      <g
         id="g276">
        <path
           d="M 4.921875,0 H 3.875 v -3.671875 l -3.890625,-5.59375 h 1.28125 l 3.125,4.5 3.140625,-4.5 H 8.8125 l -3.890625,5.59375 z m 0,0"
           id="path274" />
      </g>
    </g>
  </g>
  <g
     fill="#000000"
     fill-opacity="1"
     id="g288"
     transform="translate(-72.156609,-127.67134)">
    <g
       transform="translate(133.78617,265.48352)"
       id="g286">
      <g
         id="g284">
        <path
           d="M 5.265625,0 H 4.609375 L 3.953125,-1.53125 H 1.34375 L 0.6875,0 H 0.03125 L 2.265625,-5.296875 H 3.03125 Z M 3.734375,-2.09375 2.640625,-4.671875 1.5625,-2.09375 Z m 0,0"
           id="path282" />
      </g>
    </g>
  </g>
  <g
     fill="#000000"
     fill-opacity="1"
     id="g296"
     transform="translate(-72.156609,-127.67134)">
    <g
       transform="translate(143.87453,265.48352)"
       id="g294">
      <g
         id="g292">
        <path
           d="M 1.25,0 H 0.640625 V -5.296875 H 3.1875 c 0.53125,0 0.960938,0.152344 1.296875,0.453125 0.320313,0.292969 0.484375,0.695312 0.484375,1.203125 0,0.667969 -0.277344,1.121094 -0.828125,1.359375 -0.15625,0.0625 -0.308594,0.109375 -0.453125,0.140625 L 5.078125,0 H 4.375 L 3.09375,-2.03125 H 1.25 Z m 0,-2.59375 H 3.078125 C 3.640625,-2.59375 4.03125,-2.769531 4.25,-3.125 4.332031,-3.257812 4.375,-3.429688 4.375,-3.640625 4.375,-3.972656 4.257812,-4.238281 4.03125,-4.4375 3.800781,-4.632812 3.492188,-4.734375 3.109375,-4.734375 H 1.25 Z m 0,0"
           id="path290" />
      </g>
    </g>
  </g>
  <g
     fill="#000000"
     fill-opacity="1"
     id="g304"
     transform="translate(-72.156609,-127.67134)">
    <g
       transform="translate(154.01888,265.48352)"
       id="g302">
      <g
         id="g300">
        <path
           d="M 4.40625,-4.71875 H 2.5625 V 0 H 1.953125 V -4.71875 H 0.109375 V -5.296875 H 4.40625 Z m 0,0"
           id="path298" />
      </g>
    </g>
  </g>
  <g
     fill="#000000"
     fill-opacity="1"
     id="g312"
     transform="translate(-72.156609,-127.67134)">
    <g
       transform="translate(163.3312,265.48352)"
       id="g310">
      <g
         id="g308">
        <path
           d="M 1.203125,-0.8125 V 0 h -0.78125 v -0.8125 z m 0,0"
           id="path306" />
      </g>
    </g>
  </g>
  <g
     fill="#000000"
     fill-opacity="1"
     id="g318"
     transform="translate(-72.156609,-127.67134)">
    <g
       transform="translate(169.74742,265.48352)"
       id="g316">
      <g
         id="g314" />
    </g>
  </g>
  <g
     fill="#000000"
     fill-opacity="1"
     id="g326"
     transform="translate(-72.156609,-127.67134)">
    <g
       transform="translate(176.24363,265.48352)"
       id="g324">
      <g
         id="g322">
        <path
           d="m 1.25,-4.71875 v 1.78125 h 2.9375 v 0.578125 H 1.25 v 1.78125 H 4.546875 V 0 h -3.90625 v -5.296875 h 3.90625 v 0.578125 z m 0,0"
           id="path320" />
      </g>
    </g>
  </g>
  <g
     fill="#000000"
     fill-opacity="1"
     id="g334"
     transform="translate(-72.156609,-127.67134)">
    <g
       transform="translate(185.89997,265.48352)"
       id="g332">
      <g
         id="g330">
        <path
           d="M 1.25,-4.484375 C 1.15625,-4.398438 1.085938,-4.300781 1.046875,-4.1875 1.015625,-4.082031 1,-3.96875 1,-3.84375 c 0,0.117188 0.050781,0.226562 0.15625,0.328125 0.101562,0.09375 0.238281,0.179687 0.40625,0.25 0.175781,0.074219 0.375,0.136719 0.59375,0.1875 0.21875,0.054687 0.4375,0.109375 0.65625,0.171875 0.226562,0.054688 0.453125,0.117188 0.671875,0.1875 0.21875,0.074219 0.414063,0.164062 0.59375,0.265625 0.375,0.242187 0.5625,0.570313 0.5625,0.984375 0,0.5 -0.1875,0.882812 -0.5625,1.140625 C 3.710938,-0.0664062 3.203125,0.0625 2.546875,0.0625 1.804688,0.0625 1.238281,-0.09375 0.84375,-0.40625 0.5,-0.675781 0.300781,-1.066406 0.25,-1.578125 h 0.625 c 0.019531,0.355469 0.195312,0.632813 0.53125,0.828125 0.289062,0.167969 0.671875,0.25 1.140625,0.25 1,0 1.5,-0.3125 1.5,-0.9375 0,-0.21875 -0.09375,-0.382812 -0.28125,-0.5 C 3.585938,-2.0625 3.363281,-2.164062 3.09375,-2.25 2.832031,-2.332031 2.546875,-2.40625 2.234375,-2.46875 1.921875,-2.539062 1.628906,-2.628906 1.359375,-2.734375 1.085938,-2.847656 0.863281,-2.992188 0.6875,-3.171875 0.507812,-3.347656 0.421875,-3.585938 0.421875,-3.890625 c 0,-0.4375 0.160156,-0.789063 0.484375,-1.0625 0.332031,-0.269531 0.832031,-0.40625 1.5,-0.40625 0.675781,0 1.195312,0.15625 1.5625,0.46875 C 4.300781,-4.617188 4.476562,-4.269531 4.5,-3.84375 H 3.890625 c -0.054687,-0.4375 -0.335937,-0.726562 -0.84375,-0.875 -0.1875,-0.050781 -0.417969,-0.078125 -0.6875,-0.078125 -0.273437,0 -0.5,0.03125 -0.6875,0.09375 -0.179687,0.0625 -0.320313,0.136719 -0.421875,0.21875 z m 0,0"
           id="path328" />
      </g>
    </g>
  </g>
  <g
     fill="#000000"
     fill-opacity="1"
     id="g342"
     transform="translate(-72.156609,-127.67134)">
    <g
       transform="translate(195.6123,265.48352)"
       id="g340">
      <g
         id="g338">
        <path
           d="m 3.015625,-0.515625 c 0.375,0 0.703125,-0.09375 0.984375,-0.28125 0.289062,-0.195313 0.503906,-0.457031 0.640625,-0.78125 h 0.625 C 5.097656,-1.078125 4.8125,-0.6875 4.40625,-0.40625 3.96875,-0.09375 3.457031,0.0625 2.875,0.0625 c -0.773438,0 -1.402344,-0.265625 -1.890625,-0.796875 -0.449219,-0.5 -0.671875,-1.132813 -0.671875,-1.90625 0,-0.78125 0.222656,-1.421875 0.671875,-1.921875 0.488281,-0.53125 1.117187,-0.796875 1.890625,-0.796875 0.582031,0 1.09375,0.15625 1.53125,0.46875 0.40625,0.28125 0.691406,0.671875 0.859375,1.171875 h -0.625 C 4.503906,-4.039062 4.289062,-4.296875 4,-4.484375 3.71875,-4.679688 3.382812,-4.78125 3,-4.78125 c -0.375,0 -0.6875,0.058594 -0.9375,0.171875 -0.25,0.105469 -0.460938,0.257813 -0.625,0.453125 -0.355469,0.386719 -0.53125,0.890625 -0.53125,1.515625 0,0.617187 0.175781,1.117187 0.53125,1.5 0.351562,0.417969 0.878906,0.625 1.578125,0.625 z m 0,0"
           id="path336" />
      </g>
    </g>
  </g>
  <g
     fill="#000000"
     fill-opacity="1"
     id="g350"
     transform="translate(-72.156609,-127.67134)">
    <g
       transform="translate(205.92466,265.48352)"
       id="g348">
      <g
         id="g346">
        <path
           d="m 3,-5.359375 c 0.789062,0 1.4375,0.265625 1.9375,0.796875 0.5,0.511719 0.75,1.152344 0.75,1.921875 0,0.761719 -0.25,1.398437 -0.75,1.90625 C 4.4375,-0.203125 3.789062,0.0625 3,0.0625 c -0.792969,0 -1.4375,-0.265625 -1.9375,-0.796875 -0.5,-0.507813 -0.75,-1.144531 -0.75,-1.90625 0,-0.769531 0.25,-1.410156 0.75,-1.921875 0.5,-0.53125 1.144531,-0.796875 1.9375,-0.796875 z m 0,4.84375 c 0.625,0 1.132812,-0.207031 1.53125,-0.625 0.375,-0.394531 0.5625,-0.894531 0.5625,-1.5 0,-0.613281 -0.1875,-1.117187 -0.5625,-1.515625 C 4.132812,-4.570312 3.625,-4.78125 3,-4.78125 c -0.625,0 -1.136719,0.210938 -1.53125,0.625 -0.375,0.398438 -0.5625,0.902344 -0.5625,1.515625 0,0.605469 0.1875,1.105469 0.5625,1.5 0.394531,0.417969 0.90625,0.625 1.53125,0.625 z m 0,0"
           id="path344" />
      </g>
    </g>
  </g>
  <g
     fill="#000000"
     fill-opacity="1"
     id="g358"
     transform="translate(-72.156609,-127.67134)">
    <g
       transform="translate(216.71704,265.48352)"
       id="g356">
      <g
         id="g354">
        <path
           d="m 1.25,-5.296875 v 4.71875 H 4.140625 V 0 h -3.5 v -5.296875 z m 0,0"
           id="path352" />
      </g>
    </g>
  </g>
  <g
     fill="#000000"
     fill-opacity="1"
     id="g366"
     transform="translate(-72.156609,-127.67134)">
    <g
       transform="translate(225.77336,265.48352)"
       id="g364">
      <g
         id="g362">
        <path
           d="M 5.265625,0 H 4.609375 L 3.953125,-1.53125 H 1.34375 L 0.6875,0 H 0.03125 L 2.265625,-5.296875 H 3.03125 Z M 3.734375,-2.09375 2.640625,-4.671875 1.5625,-2.09375 Z m 0,0"
           id="path360" />
      </g>
    </g>
  </g>
  <g
     fill="#000000"
     fill-opacity="1"
     id="g374"
     transform="translate(-72.156609,-127.67134)">
    <g
       transform="translate(235.86172,265.48352)"
       id="g372">
      <g
         id="g370">
        <path
           d="M 1.25,0 H 0.640625 V -5.296875 H 3.1875 c 0.53125,0 0.960938,0.152344 1.296875,0.453125 0.320313,0.292969 0.484375,0.695312 0.484375,1.203125 0,0.667969 -0.277344,1.121094 -0.828125,1.359375 -0.15625,0.0625 -0.308594,0.109375 -0.453125,0.140625 L 5.078125,0 H 4.375 L 3.09375,-2.03125 H 1.25 Z m 0,-2.59375 H 3.078125 C 3.640625,-2.59375 4.03125,-2.769531 4.25,-3.125 4.332031,-3.257812 4.375,-3.429688 4.375,-3.640625 4.375,-3.972656 4.257812,-4.238281 4.03125,-4.4375 3.800781,-4.632812 3.492188,-4.734375 3.109375,-4.734375 H 1.25 Z m 0,0"
           id="path368" />
      </g>
    </g>
  </g>
  <rect
     style="fill:none;stroke-width:0.75"
     id="rect382"
     width="130.55051"
     height="76.30555"
     x="0"
     y="1.4210855e-14" />
  <rect
     style="fill:none;stroke-width:0.75"
     id="rect386"
     width="221.30743"
     height="145.40132"
     x="0"
     y="1.4210855e-14" />
  <rect
     style="fill:none;stroke-width:0.691329"
     id="rect392"
     width="230.34189"
     height="122.91066"
     x="0"
     y="1.4210855e-14"
     ry="0" />
</svg>
