<?xml version="1.0" encoding="UTF-8" standalone="no"?>
<svg
   xmlns:dc="http://purl.org/dc/elements/1.1/"
   xmlns:cc="http://creativecommons.org/ns#"
   xmlns:rdf="http://www.w3.org/1999/02/22-rdf-syntax-ns#"
   xmlns:svg="http://www.w3.org/2000/svg"
   xmlns="http://www.w3.org/2000/svg"
   width="467.45572"
   zoomAndPan="magnify"
   viewBox="0 0 350.5918 79.781285"
   height="106.37505"
   preserveAspectRatio="xMidYMid meet"
   version="1.0"
   id="svg107">
  <metadata
     id="metadata111">
    <rdf:RDF>
      <cc:Work
         rdf:about="">
        <dc:format>image/svg+xml</dc:format>
        <dc:type
           rdf:resource="http://purl.org/dc/dcmitype/StillImage" />
        <dc:title></dc:title>
      </cc:Work>
    </rdf:RDF>
  </metadata>
  <defs
     id="defs7">
    <rect
       x="182.44077"
       y="174.11771"
       width="195.50427"
       height="93.57132"
       id="rect1173" />
    <rect
       x="206.75343"
       y="156.93388"
       width="295.27426"
       height="75.402405"
       id="rect695" />
    <g
       id="g2" />
    <clipPath
       id="id1">
      <path
         d="M 64.164062,187.5 H 237.5625 v 26.39844 H 64.164062 Z m 0,0"
         clip-rule="nonzero"
         id="path4" />
    </clipPath>
  </defs>
  <g
     fill="#000000"
     fill-opacity="1"
     id="g41"
     transform="translate(-20.086361,-151.81225)">
    <g
       transform="translate(91.203405,205.74413)"
       id="g39">
      <g
         id="g37" />
    </g>
  </g>
  <g
     fill="#000000"
     fill-opacity="1"
     id="g55"
     transform="translate(-20.086361,-151.81225)">
    <g
       transform="translate(121.38744,205.74413)"
       id="g53">
      <g
         id="g51" />
    </g>
  </g>
  <g
     fill="#000000"
     fill-opacity="1"
     id="g69"
     transform="translate(-20.086361,-151.81225)">
    <g
       transform="translate(151.65679,205.74413)"
       id="g67">
      <g
         id="g65" />
    </g>
  </g>
  <g
     fill="#000000"
     fill-opacity="1"
     id="g83"
     transform="translate(-20.086361,-151.81225)">
    <g
       transform="translate(181.1827,205.74413)"
       id="g81">
      <g
         id="g79" />
    </g>
  </g>
  <g
     fill="#000000"
     fill-opacity="1"
     id="g97"
     transform="translate(-20.086361,-151.81225)">
    <g
       transform="translate(209.79456,205.74413)"
       id="g95">
      <g
         id="g93" />
    </g>
  </g>
  <path
     id="rect113"
     style="fill:none;stroke-width:0.75"
     d="m 44.238835,-11.417225 v 46.51904 c 0.431075,10e-4 0.862453,9e-5 1.293457,0 0.557625,-2e-5 1.115227,10e-4 1.672851,10e-4 0.622103,-3e-5 1.244109,-10e-4 1.866211,-10e-4 0.477773,0 0.954845,0 1.432618,0 h 2.29248 2.831543 4.768066 4.189454 4.16748 2.929688 2.746582 4.879394 1.750488 c 0.06286,-0.004 0.127307,-0.0127 0.1875,-0.0102 0.141593,7e-4 0.283219,0.006 0.424805,0.0102 h 1.467773 c 0.05763,-0.003 0.115216,0.002 0.172852,-0.003 0.623122,-0.0427 1.185754,-0.0807 1.749023,-0.0762 0.358151,0.003 0.722724,0.0326 1.095704,0.0791 h 1.974609 4.691898 2.77294 2.26172 3.357429 2.10791 3.60058 3.17139 2.4375 1.32422 1.25244 2.30713 2.02588 1.50146 1.2334 1.23633 1.79883 2.26757 5.37305 6.71777 1.20117 1.44581 2.18115 1.72998 0.94189 0.50244 c 0.43375,0.10549 0.55838,0.10694 0.68409,0.10694 h 0.24462 c 0.002,0 0.004,3.5e-4 0.006,0 0.0192,-0.003 0.0482,-0.0163 0.0484,0 3e-5,0.004 -0.003,0.0104 -0.003,0.0147 0.004,9e-4 0.007,0.002 0.0103,0.003 7.5e-4,-0.005 -7.5e-4,-0.0127 0,-0.0176 0.0153,-0.0672 0.13765,0 0.20655,0 h 0.74268 0.48194 0.7163 0.64014 0.76318 0.79834 1.17773 2.03614 1.30957 1.52344 1.34766 1.76952 1.31983 1.89844 0.89794 1.36231 1.11328 1.3462 0.85839 0.92286 0.94921 0.91553 1.09424 1.48388 1.04883 1.51904 0.90821 1.21582 1.24218 1.45606 1.4414 1.57179 1.82812 1.16748 0.96533 0.91553 1.21875 1.24658 0.79248 1.24658 1.16309 1.38427 1.29054 1.18798 1.24219 1.13818 0.87891 1.12207 1.35498 0.85254 1.39746 1.06494 1.09717 1.11621 1.09277 0.69287 0.77052 0.58886 0.11426 v -46.62598 z m 104.324705,46.64355 c -0.0255,0.1354 0.007,0.31488 0.0439,0.49365 h 0.0205 c 0.0475,-0.23866 0.0744,-0.44837 -0.0644,-0.49365 z m -0.0103,-0.003 c -0.0158,-0.004 -0.0255,-0.0146 -0.0455,-0.0146 -0.21021,0 -0.16564,0.23976 -0.0908,0.51123 h 0.0307 c 0.0516,-0.17855 0.10304,-0.35873 0.10546,-0.49658 z m -102.452619,1.02829 c -0.06376,0.43448 -0.156641,0.91018 -0.27539,1.42969 0.139823,0.10796 0.25083,0.19838 0.373535,0.29883 -0.109273,-0.70541 -0.125529,-1.32273 0.08203,-1.72852 -0.06006,0 -0.120116,0 -0.180176,0 z m 167.270509,0.10547 c 0.47626,0.24108 0.94973,0.48652 1.41211,0.75293 0.0844,0.0486 0.12986,0.15054 0.16406,0.2417 0.0344,0.0914 0.053,0.13922 0.0835,0.21973 0.18044,-0.032 0.3613,-0.0615 0.54199,-0.0923 v -1.12207 h -0.11426 -0.58886 -0.77051 -0.69288 z m -0.0293,0.75 c -0.11404,0.27478 -0.23647,0.54593 -0.35157,0.82031 0.15887,-0.0267 0.31731,-0.056 0.47607,-0.0835 -0.0415,-0.24567 -0.083,-0.49114 -0.1245,-0.73681 z m 0.63573,0.44971 c -0.15037,-0.0218 -0.27293,0.0849 -0.375,0.26367 0.21538,-0.0375 0.43073,-0.0746 0.646,-0.11279 -0.0237,-0.0189 -0.0445,-0.0403 -0.0688,-0.0586 -0.0716,-0.0539 -0.139,-0.0831 -0.20215,-0.0923 z m -168.202134,0.3457 c -0.0042,0.018 -0.009,0.0362 -0.01318,0.0542 0.03655,0.0728 0.05165,0.12854 0.0542,0.20362 0.06468,0.14857 0.120752,0.33952 0.166992,0.56103 0.168701,0.12144 0.320158,0.24773 0.429199,0.3794 -0.05293,-0.23512 -0.101324,-0.4665 -0.14502,-0.69288 -0.0799,-0.0388 -0.09994,-0.0388 -0.202148,-0.0923 -0.06035,-0.0825 -0.18189,-0.25762 -0.290039,-0.41308 z m 0.208008,0.81885 c -0.04389,-0.0316 -0.093,-0.0601 -0.13916,-0.0908 0.0048,0.0479 0.01321,0.10484 0.02051,0.1626 l 0.152343,0.13916 c -0.01259,-0.0716 -0.0192,-0.14152 -0.03369,-0.21094 z m -0.13916,-0.0908 c -0.02427,-0.24235 -0.02488,-0.38345 -0.02783,-0.47022 -0.01466,-0.0337 -0.02691,-0.078 -0.04248,-0.10546 -0.0073,-0.013 -0.01722,-0.024 -0.0249,-0.0366 -0.03679,0.15885 -0.07325,0.31763 -0.109864,0.47754 0.07115,0.043 0.136912,0.0895 0.205079,0.13476 z m 167.655756,-0.5874 c -0.16457,0.455 -0.22678,1.15792 -0.20507,1.85156 0.0646,0.0162 0.13514,0.0212 0.21386,0.0117 0.0893,-0.0738 0.17578,-0.15108 0.26807,-0.22119 -0.0925,-0.54748 -0.18436,-1.09461 -0.27686,-1.64209 z m -1.50585,2.52099 c -0.20955,0.0126 -0.32584,0.0751 -0.20655,0.20069 0.14502,0.15272 0.30288,0.29049 0.46583,0.42187 0.0918,-0.12451 0.18503,-0.24818 0.29296,-0.36181 0.009,-0.01 0.0185,-0.0196 0.0278,-0.0293 9e-5,-0.0562 1e-5,-0.1123 0,-0.16846 -0.20676,-0.0419 -0.42007,-0.0726 -0.58008,-0.063 z m -160.062016,1.65528 c -0.197293,0.1006 0.04682,0.54012 0.461426,1.07959 0.14483,-0.0682 0.295595,-0.12837 0.449707,-0.18311 -0.02782,-0.0544 -0.06133,-0.10621 -0.08496,-0.1626 -0.02896,-0.0691 -0.02003,-0.148 -0.02637,-0.22265 -0.0087,-0.10184 -0.01474,-0.20402 -0.0205,-0.30616 -0.152579,-0.0865 -0.312462,-0.16053 -0.490723,-0.20507 z M 206.189,44.970385 c -0.0175,0.0143 -0.0178,0.10386 0.007,0.30323 0.003,0.0247 0.01,0.0487 0.0132,0.0733 0.034,0.053 0.0612,0.0971 0.0952,0.15234 0.0182,0.003 0.10951,0.0172 0.11718,0.019 -0.10446,-0.32107 -0.19598,-0.57804 -0.2329,-0.54785 z m 0.14209,0.57129 c 0.019,0.031 0.0399,0.0637 0.0557,0.0894 h 0.001 c 0.0242,0.007 0.0473,0.0138 0.0747,0.019 -0.0144,-0.0461 -0.0171,-0.0555 -0.0323,-0.10254 -0.0395,-0.002 -0.056,-0.004 -0.0996,-0.006 z m 0.0572,0.0894 c 0.0109,0.0176 0.0295,0.0478 0.0381,0.0615 0.0432,0.0688 0.0761,0.14097 0.11573,0.21094 -0.0251,-0.0849 -0.0416,-0.13679 -0.0762,-0.24756 -0.0262,-0.008 -0.0512,-0.0165 -0.0776,-0.0249 z m 0.15381,1.10449 c 0.002,0.007 0.004,0.0137 0.006,0.0205 0.0115,0.0112 0.0137,0.0112 0.0249,0.022 -0.017,-0.0254 -0.0127,-0.0151 -0.0308,-0.0425 z m 0.10108,0.34571 c 0.0142,0.0482 0.0272,0.0967 0.041,0.14502 0.0308,-9.8e-4 0.0656,-0.003 0.0967,-0.004 3.6e-4,-0.0343 -1.6e-4,-0.0818 0,-0.1084 -0.0508,-0.0105 -0.089,-0.0215 -0.1377,-0.0322 z m 0.43213,0.0967 c 0.003,0.0113 0.007,0.0224 0.0103,0.0337 0.0548,-0.002 0.10997,-0.002 0.16553,-0.004 -0.0568,-0.01 -0.12108,-0.0193 -0.17578,-0.0293 z m 0.38085,0.5039 c 0.0145,0.0215 0.0723,0.12799 0.0879,0.15381 0.39459,0.0191 0.76197,0.0401 1.09131,0.0615 -0.34803,-0.0757 -0.7086,-0.15166 -1.17921,-0.21533 z m 3.72071,2.95313 c 0.147,0.053 0.52069,0.19041 0.78223,0.2915 -0.0156,-0.0203 -0.0331,-0.0568 -0.0484,-0.0776 -0.27322,-0.0951 -0.52598,-0.16605 -0.73388,-0.21386 z m 2.94433,7.62598 c -0.003,0.0771 -0.007,0.15578 -0.0146,0.2373 0.002,0.0336 0.0119,0.0914 0.0132,0.12305 0.14656,0.60886 0.0889,0.18257 0.001,-0.36035 z m -0.14062,0.88476 c -0.0248,0.077 -0.0463,0.15459 -0.0659,0.23291 -0.0195,0.0778 0.0449,-0.12419 0.0718,-0.22998 -0.002,-7.3e-4 -0.004,-0.002 -0.006,-0.003 z m 0.0644,0.0264 c -0.10478,0.28195 -0.49451,0.66381 -1.00928,1.12647 -0.12151,0.21969 -0.2543,0.42035 -0.39844,0.59765 h 2.10645 0.82911 v -1.30664 c -0.0199,-0.006 -0.0401,-0.0106 -0.0601,-0.0161 -0.0886,-0.0238 -1.40471,-0.37696 -1.40772,-0.37793 -0.0203,-0.007 -0.0398,-0.0163 -0.0601,-0.0234 z m -168.593262,0.022 c -0.28529,0.48366 -0.56549,0.97143 -0.884766,1.43408 -0.102609,0.15394 -0.164949,0.24461 -0.247558,0.36914 0.134854,-0.0316 0.269317,-0.0666 0.407226,-0.082 0.286,-0.0319 0.574214,-0.0391 0.861328,-0.0586 0.251539,0.003 0.502963,0.005 0.754395,0.0102 -0.207292,-0.35688 -0.513924,-0.95527 -0.890625,-1.67285 z m 170.066872,0.35742 c -0.0187,-0.008 0.0301,0.0151 0.0542,0.0264 v -0.003 c -0.0181,-0.008 -0.0359,-0.0161 -0.0542,-0.0234 z m -10.875,0.35888 c 0.19701,0.60806 0.31153,0.79612 0.86133,0.98438 -0.21398,-0.21617 -0.53092,-0.58847 -0.86133,-0.98438 z m -158.964844,2.56934 c -0.20105,0.008 -0.403527,10e-4 -0.603515,0.0234 -0.135584,0.0149 -0.264278,0.0618 -0.398438,0.0864 -0.150385,0.0276 -0.293895,0.0467 -0.437988,0.0644 V 89.050467 H 215.57282 V 62.522145 h -0.8291 -2.56201 -1.3169 -1.67431 -1.27734 -0.7837 -1.00195 -1.20997 -1.20263 -1.3081 -1.22461 -1.22608 -1.87793 -1.43994 -1.10009 -1.68165 -1.93066 -1.22021 -2.19141 -1.01953 -3.06885 -4.22754 -2.98242 -3.00293 -3.08643 -3.479 -4.39453 -4.14698 -8.47998 -4.85889 -5.71728 -7.46924 -6.47314 -8.06983 -9.41894 -9.520019 -9.59912 -4.984867 -5.682129 -6.537598 -2.758301 c -1.502391,0 -3.004927,0 -4.507324,0 -1.618866,0 -3.238554,-1e-5 -4.857422,0 -1.580833,0 -3.160866,-0.001 -4.741699,-0.002 -0.83878,-1.1e-4 -1.677821,10e-4 -2.516602,0.002 -1.360177,-0.001 -2.720924,-0.01 -4.081054,0.004 -1.052319,0.008 -2.101991,-0.0259 -3.153809,-0.0469 z" />
  <path
     id="rect115"
     style="fill:none;stroke-width:0.75"
     d="m 44.238835,-11.417225 v 46.51904 c 0.431075,10e-4 0.862453,9e-5 1.293457,0 0.557625,-2e-5 1.115227,10e-4 1.672851,10e-4 0.622103,-3e-5 1.244109,-10e-4 1.866211,-10e-4 0.477773,0 0.954845,0 1.432618,0 h 2.29248 2.831543 4.768066 4.189454 4.16748 2.929688 2.746582 4.879394 1.750488 c 0.06286,-0.004 0.127307,-0.0127 0.1875,-0.0102 0.141593,7e-4 0.283219,0.006 0.424805,0.0102 h 1.467773 c 0.05763,-0.003 0.115216,0.002 0.172852,-0.003 0.623122,-0.0427 1.185754,-0.0807 1.749023,-0.0762 0.358151,0.003 0.722724,0.0326 1.095704,0.0791 h 1.974609 4.691898 2.77294 2.26172 3.357429 2.10791 3.60058 3.17139 2.4375 1.32422 1.25244 2.30713 2.02588 1.50146 1.2334 1.23633 1.79883 2.26757 5.37305 6.71777 1.20117 1.44581 2.18115 1.72998 0.94189 0.50244 c 0.43375,0.10549 0.55838,0.10694 0.68409,0.10694 h 0.24462 c 0.002,0 0.004,3.5e-4 0.006,0 0.0192,-0.003 0.0482,-0.0163 0.0484,0 3e-5,0.004 -0.003,0.0104 -0.003,0.0147 0.004,9e-4 0.007,0.002 0.0103,0.003 7.5e-4,-0.005 -7.5e-4,-0.0127 0,-0.0176 0.0153,-0.0672 0.13765,0 0.20655,0 h 0.74268 0.48194 0.7163 0.64014 0.76318 0.79834 1.17773 2.03614 1.30957 1.52344 1.34766 1.76952 1.31983 1.89844 0.89794 1.36231 1.11328 1.3462 0.85839 0.92286 0.94921 0.91553 1.09424 1.48388 1.04883 1.51904 0.90821 1.21582 1.24218 1.45606 1.4414 1.57179 1.82812 1.16748 0.96533 0.91553 1.21875 1.24658 0.79248 1.24658 1.16309 1.38427 1.29054 1.18798 1.24219 1.13818 0.87891 1.12207 1.35498 0.85254 1.39746 1.06494 1.09717 1.11621 1.09277 0.69287 0.77052 0.58886 0.11426 v -46.62598 z m 104.324705,46.64355 c -0.0255,0.1354 0.007,0.31488 0.0439,0.49365 h 0.0205 c 0.0475,-0.23866 0.0744,-0.44837 -0.0644,-0.49365 z m -0.0103,-0.003 c -0.0158,-0.004 -0.0255,-0.0146 -0.0455,-0.0146 -0.21021,0 -0.16564,0.23976 -0.0908,0.51123 h 0.0307 c 0.0516,-0.17855 0.10304,-0.35873 0.10546,-0.49658 z m -102.452619,1.02829 c -0.06376,0.43448 -0.156641,0.91018 -0.27539,1.42969 0.139823,0.10796 0.25083,0.19838 0.373535,0.29883 -0.109273,-0.70541 -0.125529,-1.32273 0.08203,-1.72852 -0.06006,0 -0.120116,0 -0.180176,0 z m 167.270509,0.10547 c 0.47626,0.24108 0.94973,0.48652 1.41211,0.75293 0.0844,0.0486 0.12986,0.15054 0.16406,0.2417 0.0344,0.0914 0.053,0.13922 0.0835,0.21973 0.18044,-0.032 0.3613,-0.0615 0.54199,-0.0923 v -1.12207 h -0.11426 -0.58886 -0.77051 -0.69288 z m -0.0293,0.75 c -0.11404,0.27478 -0.23647,0.54593 -0.35157,0.82031 0.15887,-0.0267 0.31731,-0.056 0.47607,-0.0835 -0.0415,-0.24567 -0.083,-0.49114 -0.1245,-0.73681 z m 0.63573,0.44971 c -0.15037,-0.0218 -0.27293,0.0849 -0.375,0.26367 0.21538,-0.0375 0.43073,-0.0746 0.646,-0.11279 -0.0237,-0.0189 -0.0445,-0.0403 -0.0688,-0.0586 -0.0716,-0.0539 -0.139,-0.0831 -0.20215,-0.0923 z m -168.202134,0.3457 c -0.0042,0.018 -0.009,0.0362 -0.01318,0.0542 0.03655,0.0728 0.05165,0.12854 0.0542,0.20362 0.06468,0.14857 0.120752,0.33952 0.166992,0.56103 0.168701,0.12144 0.320158,0.24773 0.429199,0.3794 -0.05293,-0.23512 -0.101324,-0.4665 -0.14502,-0.69288 -0.0799,-0.0388 -0.09994,-0.0388 -0.202148,-0.0923 -0.06035,-0.0825 -0.18189,-0.25762 -0.290039,-0.41308 z m 0.208008,0.81885 c -0.04389,-0.0316 -0.093,-0.0601 -0.13916,-0.0908 0.0048,0.0479 0.01321,0.10484 0.02051,0.1626 l 0.152343,0.13916 c -0.01259,-0.0716 -0.0192,-0.14152 -0.03369,-0.21094 z m -0.13916,-0.0908 c -0.02427,-0.24235 -0.02488,-0.38345 -0.02783,-0.47022 -0.01466,-0.0337 -0.02691,-0.078 -0.04248,-0.10546 -0.0073,-0.013 -0.01722,-0.024 -0.0249,-0.0366 -0.03679,0.15885 -0.07325,0.31763 -0.109864,0.47754 0.07115,0.043 0.136912,0.0895 0.205079,0.13476 z m 167.655756,-0.5874 c -0.16457,0.455 -0.22678,1.15792 -0.20507,1.85156 0.0646,0.0162 0.13514,0.0212 0.21386,0.0117 0.0893,-0.0738 0.17578,-0.15108 0.26807,-0.22119 -0.0925,-0.54748 -0.18436,-1.09461 -0.27686,-1.64209 z m -1.50585,2.52099 c -0.20955,0.0126 -0.32584,0.0751 -0.20655,0.20069 0.14502,0.15272 0.30288,0.29049 0.46583,0.42187 0.0918,-0.12451 0.18503,-0.24818 0.29296,-0.36181 0.009,-0.01 0.0185,-0.0196 0.0278,-0.0293 9e-5,-0.0562 1e-5,-0.1123 0,-0.16846 -0.20676,-0.0419 -0.42007,-0.0726 -0.58008,-0.063 z m -160.062016,1.65528 c -0.197293,0.1006 0.04682,0.54012 0.461426,1.07959 0.14483,-0.0682 0.295595,-0.12837 0.449707,-0.18311 -0.02782,-0.0544 -0.06133,-0.10621 -0.08496,-0.1626 -0.02896,-0.0691 -0.02003,-0.148 -0.02637,-0.22265 -0.0087,-0.10184 -0.01474,-0.20402 -0.0205,-0.30616 -0.152579,-0.0865 -0.312462,-0.16053 -0.490723,-0.20507 z M 206.189,44.970385 c -0.0175,0.0143 -0.0178,0.10386 0.007,0.30323 0.003,0.0247 0.01,0.0487 0.0132,0.0733 0.034,0.053 0.0612,0.0971 0.0952,0.15234 0.0182,0.003 0.10951,0.0172 0.11718,0.019 -0.10446,-0.32107 -0.19598,-0.57804 -0.2329,-0.54785 z m 0.14209,0.57129 c 0.019,0.031 0.0399,0.0637 0.0557,0.0894 h 0.001 c 0.0242,0.007 0.0473,0.0138 0.0747,0.019 -0.0144,-0.0461 -0.0171,-0.0555 -0.0323,-0.10254 -0.0395,-0.002 -0.056,-0.004 -0.0996,-0.006 z m 0.0572,0.0894 c 0.0109,0.0176 0.0295,0.0478 0.0381,0.0615 0.0432,0.0688 0.0761,0.14097 0.11573,0.21094 -0.0251,-0.0849 -0.0416,-0.13679 -0.0762,-0.24756 -0.0262,-0.008 -0.0512,-0.0165 -0.0776,-0.0249 z m 0.15381,1.10449 c 0.002,0.007 0.004,0.0137 0.006,0.0205 0.0115,0.0112 0.0137,0.0112 0.0249,0.022 -0.017,-0.0254 -0.0127,-0.0151 -0.0308,-0.0425 z m 0.10108,0.34571 c 0.0142,0.0482 0.0272,0.0967 0.041,0.14502 0.0308,-9.8e-4 0.0656,-0.003 0.0967,-0.004 3.6e-4,-0.0343 -1.6e-4,-0.0818 0,-0.1084 -0.0508,-0.0105 -0.089,-0.0215 -0.1377,-0.0322 z m 0.43213,0.0967 c 0.003,0.0113 0.007,0.0224 0.0103,0.0337 0.0548,-0.002 0.10997,-0.002 0.16553,-0.004 -0.0568,-0.01 -0.12108,-0.0193 -0.17578,-0.0293 z m 0.38085,0.5039 c 0.0145,0.0215 0.0723,0.12799 0.0879,0.15381 0.39459,0.0191 0.76197,0.0401 1.09131,0.0615 -0.34803,-0.0757 -0.7086,-0.15166 -1.17921,-0.21533 z m 3.72071,2.95313 c 0.147,0.053 0.52069,0.19041 0.78223,0.2915 -0.0156,-0.0203 -0.0331,-0.0568 -0.0484,-0.0776 -0.27322,-0.0951 -0.52598,-0.16605 -0.73388,-0.21386 z m 2.94433,7.62598 c -0.003,0.0771 -0.007,0.15578 -0.0146,0.2373 0.002,0.0336 0.0119,0.0914 0.0132,0.12305 0.14656,0.60886 0.0889,0.18257 0.001,-0.36035 z m -0.14062,0.88476 c -0.0248,0.077 -0.0463,0.15459 -0.0659,0.23291 -0.0195,0.0778 0.0449,-0.12419 0.0718,-0.22998 -0.002,-7.3e-4 -0.004,-0.002 -0.006,-0.003 z m 0.0644,0.0264 c -0.10478,0.28195 -0.49451,0.66381 -1.00928,1.12647 -0.12151,0.21969 -0.2543,0.42035 -0.39844,0.59765 h 2.10645 0.82911 v -1.30664 c -0.0199,-0.006 -0.0401,-0.0106 -0.0601,-0.0161 -0.0886,-0.0238 -1.40471,-0.37696 -1.40772,-0.37793 -0.0203,-0.007 -0.0398,-0.0163 -0.0601,-0.0234 z m -168.593262,0.022 c -0.28529,0.48366 -0.56549,0.97143 -0.884766,1.43408 -0.102609,0.15394 -0.164949,0.24461 -0.247558,0.36914 0.134854,-0.0316 0.269317,-0.0666 0.407226,-0.082 0.286,-0.0319 0.574214,-0.0391 0.861328,-0.0586 0.251539,0.003 0.502963,0.005 0.754395,0.0102 -0.207292,-0.35688 -0.513924,-0.95527 -0.890625,-1.67285 z m 170.066872,0.35742 c -0.0187,-0.008 0.0301,0.0151 0.0542,0.0264 v -0.003 c -0.0181,-0.008 -0.0359,-0.0161 -0.0542,-0.0234 z m -10.875,0.35888 c 0.19701,0.60806 0.31153,0.79612 0.86133,0.98438 -0.21398,-0.21617 -0.53092,-0.58847 -0.86133,-0.98438 z m -158.964844,2.56934 c -0.20105,0.008 -0.403527,10e-4 -0.603515,0.0234 -0.135584,0.0149 -0.264278,0.0618 -0.398438,0.0864 -0.150385,0.0276 -0.293895,0.0467 -0.437988,0.0644 V 89.050467 H 215.57282 V 62.522145 h -0.8291 -2.56201 -1.3169 -1.67431 -1.27734 -0.7837 -1.00195 -1.20997 -1.20263 -1.3081 -1.22461 -1.22608 -1.87793 -1.43994 -1.10009 -1.68165 -1.93066 -1.22021 -2.19141 -1.01953 -3.06885 -4.22754 -2.98242 -3.00293 -3.08643 -3.479 -4.39453 -4.14698 -8.47998 -4.85889 -5.71728 -7.46924 -6.47314 -8.06983 -9.41894 -9.520019 -9.59912 -4.984867 -5.682129 -6.537598 -2.758301 c -1.502391,0 -3.004927,0 -4.507324,0 -1.618866,0 -3.238554,-1e-5 -4.857422,0 -1.580833,0 -3.160866,-0.001 -4.741699,-0.002 -0.83878,-1.1e-4 -1.677821,10e-4 -2.516602,0.002 -1.360177,-0.001 -2.720924,-0.01 -4.081054,0.004 -1.052319,0.008 -2.101991,-0.0259 -3.153809,-0.0469 z" />
  <path
     id="rect213"
     style="fill:none;fill-opacity:1;stroke-width:0.75"
     d="m 148.4112,35.687755 c 0.003,0.0117 0.004,0.022 0.006,0.0322 h 0.0307 c 0.003,-0.0107 0.006,-0.0214 0.009,-0.0322 z m 0.19042,0 c 0.002,0.0109 0.004,0.0215 0.006,0.0322 h 0.0205 c 0.002,-0.0103 0.002,-0.0207 0.005,-0.0322 z m -102.500969,0.56396 c -0.06376,0.43448 -0.156641,0.91018 -0.27539,1.42969 0.139823,0.10796 0.25083,0.19838 0.373535,0.29883 -0.109273,-0.70541 -0.125529,-1.32273 0.08203,-1.72852 -0.06006,0 -0.120116,0 -0.180176,0 z m 167.270509,0.10547 c 0.47626,0.24108 0.94973,0.48652 1.41211,0.75293 0.0844,0.0486 0.12986,0.15054 0.16406,0.2417 0.0344,0.0914 0.053,0.13922 0.0835,0.21973 0.47644,-0.0846 0.95404,-0.16341 1.43115,-0.24317 -0.0613,-0.14359 -0.13231,-0.28025 -0.20215,-0.41748 -0.13207,0.0341 -0.26633,0.0683 -0.56689,0.13037 -0.1506,0.0311 0.28388,-0.12931 0.43652,-0.14795 0.0429,-0.005 0.0756,-0.004 0.11719,-0.009 -0.009,-0.0172 -0.0159,-0.0357 -0.0249,-0.0527 -0.15346,-0.0233 -0.27539,-0.0379 -0.45996,-0.0703 -0.13045,-0.0229 0.32596,-0.18709 0.39111,-0.0718 0.0256,0.0453 0.0445,0.0958 0.0689,0.14209 0.0728,0.0111 0.15188,0.0244 0.21826,0.0337 0.30413,-0.093 -0.0915,-0.0536 0.58447,-0.10254 0.14741,-0.002 0.33036,0.01 0.42041,0.009 0.0103,-0.004 0.0205,-0.007 0.0307,-0.0102 v -0.40429 h -0.46436 -0.95654 -0.59619 -0.58887 -0.77051 -0.69287 z m 2.87549,0.52735 c 0.005,0.009 0.009,0.0177 0.0132,0.0264 0.0454,-0.0117 0.13884,-0.0319 0.16992,-0.041 -0.0622,0.006 -0.11806,0.007 -0.18311,0.0146 z m 0.67676,-0.0527 c -0.14312,0.002 -0.31046,0.0223 -0.46875,0.0366 0.2494,0.0346 0.45607,0.0591 0.62548,0.0733 0.0694,-0.0378 0.1385,-0.0666 0.20802,-0.0981 -0.11805,-0.01 -0.23825,-0.0136 -0.36475,-0.0117 z m -3.58154,0.27539 c -0.11404,0.27477 -0.23647,0.54592 -0.35157,0.82031 0.15887,-0.0267 0.31731,-0.056 0.47607,-0.0835 -0.0415,-0.24567 -0.083,-0.49114 -0.1245,-0.73682 z m 0.63573,0.4497 c -0.15037,-0.0218 -0.27293,0.0849 -0.375,0.26368 0.21538,-0.0375 0.43073,-0.0746 0.646,-0.1128 -0.0237,-0.0189 -0.0445,-0.0403 -0.0688,-0.0586 -0.0716,-0.0539 -0.139,-0.0831 -0.20215,-0.0923 z m 2.29395,0.0513 c -0.19243,0.20605 -0.35011,0.44784 -0.49365,0.70313 0.0164,-0.0115 0.0335,-0.0221 0.0498,-0.0337 0.13918,-0.23201 0.28065,-0.46182 0.44385,-0.66944 z m -170.496094,0.29443 c -0.0042,0.018 -0.009,0.0362 -0.01318,0.0542 0.03655,0.0728 0.05165,0.12854 0.0542,0.20362 0.06468,0.14857 0.120752,0.33952 0.166992,0.56103 0.168701,0.12144 0.320158,0.24773 0.429199,0.3794 -0.05293,-0.23512 -0.101324,-0.4665 -0.14502,-0.69288 -0.0799,-0.0388 -0.09994,-0.0388 -0.202148,-0.0923 -0.06035,-0.0825 -0.18189,-0.25762 -0.290039,-0.41308 z m 0.208008,0.81885 c -0.04389,-0.0316 -0.093,-0.0601 -0.13916,-0.0908 0.0048,0.0479 0.01321,0.10484 0.02051,0.1626 l 0.152343,0.13916 c -0.01259,-0.0716 -0.0192,-0.14152 -0.03369,-0.21094 z m -0.13916,-0.0908 c -0.02427,-0.24235 -0.02488,-0.38345 -0.02783,-0.47022 -0.01466,-0.0337 -0.02691,-0.078 -0.04248,-0.10546 -0.0073,-0.013 -0.01722,-0.024 -0.0249,-0.0366 -0.03679,0.15885 -0.07325,0.31763 -0.109864,0.47754 0.07115,0.043 0.136912,0.0895 0.205079,0.13476 z m 167.655756,-0.5874 c -0.16457,0.455 -0.22678,1.15792 -0.20507,1.85156 0.0646,0.0162 0.13514,0.0212 0.21386,0.0117 0.0893,-0.0738 0.17578,-0.15108 0.26807,-0.22119 -0.0925,-0.54748 -0.18436,-1.09461 -0.27686,-1.64209 z m -1.50585,2.52099 c -0.20955,0.0126 -0.32584,0.0751 -0.20655,0.20069 0.14502,0.15272 0.30288,0.29049 0.46583,0.42187 0.0918,-0.12451 0.18503,-0.24818 0.29296,-0.36181 0.009,-0.01 0.0185,-0.0196 0.0278,-0.0293 9e-5,-0.0562 1e-5,-0.1123 0,-0.16846 -0.20676,-0.0419 -0.42007,-0.0726 -0.58008,-0.063 z m -160.062016,1.65528 c -0.197293,0.1006 0.04682,0.54012 0.461426,1.07959 0.14483,-0.0682 0.295595,-0.12837 0.449707,-0.18311 -0.02782,-0.0544 -0.06133,-0.10621 -0.08496,-0.1626 -0.02896,-0.0691 -0.02003,-0.148 -0.02637,-0.22265 -0.0087,-0.10184 -0.01474,-0.20402 -0.0205,-0.30616 -0.152579,-0.0865 -0.312462,-0.16053 -0.490723,-0.20507 z m 154.256836,2.75097 c -0.0175,0.0143 -0.0178,0.10386 0.007,0.30323 0.003,0.0247 0.01,0.0487 0.0132,0.0733 0.034,0.053 0.0612,0.0971 0.0952,0.15234 0.0182,0.003 0.10951,0.0172 0.11718,0.019 -0.10446,-0.32107 -0.19598,-0.57804 -0.2329,-0.54785 z m 0.14209,0.57129 c 0.019,0.031 0.0399,0.0637 0.0557,0.0894 h 0.001 c 0.0242,0.007 0.0473,0.0138 0.0747,0.019 -0.0144,-0.0461 -0.0171,-0.0555 -0.0323,-0.10254 -0.0395,-0.002 -0.056,-0.004 -0.0996,-0.006 z m 0.0572,0.0894 c 0.0109,0.0176 0.0295,0.0478 0.0381,0.0615 0.0432,0.0688 0.0761,0.14097 0.11573,0.21094 -0.0251,-0.0849 -0.0416,-0.13679 -0.0762,-0.24756 -0.0262,-0.008 -0.0512,-0.0165 -0.0776,-0.0249 z m 0.15381,1.10449 c 0.002,0.007 0.004,0.0137 0.006,0.0205 0.0115,0.0112 0.0137,0.0112 0.0249,0.022 -0.017,-0.0254 -0.0127,-0.0151 -0.0308,-0.0425 z m 0.10108,0.34571 c 0.0142,0.0482 0.0272,0.0967 0.041,0.14502 0.0308,-9.8e-4 0.0656,-0.003 0.0967,-0.004 3.6e-4,-0.0343 -1.6e-4,-0.0818 0,-0.1084 -0.0508,-0.0105 -0.089,-0.0215 -0.1377,-0.0322 z m 0.43213,0.0967 c 0.003,0.0113 0.007,0.0224 0.0103,0.0337 0.0548,-0.002 0.10997,-0.002 0.16553,-0.004 -0.0568,-0.01 -0.12108,-0.0193 -0.17578,-0.0293 z m 9.26806,0.0234 c -0.0366,-5.2e-4 -0.0365,0.004 0.0205,0.0161 0.11475,0.0247 0.23133,0.0385 0.34863,0.0513 v -0.0395 c -0.16066,-0.0145 -0.30826,-0.027 -0.36914,-0.0278 z m -8.88721,0.48047 c 0.0145,0.0215 0.0723,0.12799 0.0879,0.1538 0.39459,0.0191 0.76197,0.0401 1.09131,0.0615 -0.34803,-0.0757 -0.7086,-0.15166 -1.17921,-0.21533 z m 3.72071,2.95312 c 0.147,0.053 0.52069,0.19042 0.78223,0.2915 -0.0156,-0.0203 -0.0331,-0.0568 -0.0484,-0.0776 -0.27322,-0.0951 -0.52598,-0.16605 -0.73388,-0.21386 z m 5.80225,0.74707 c 0.006,0.0373 -0.001,-0.0104 0.005,0.0293 0.007,0.019 0.024,0.0766 0.019,0.0571 -0.0118,-0.0467 -0.0125,-0.0443 -0.0234,-0.0864 z m -2.85792,6.87891 c -0.003,0.0771 -0.007,0.15578 -0.0146,0.2373 0.002,0.0336 0.0119,0.0914 0.0132,0.12305 0.14656,0.60886 0.0889,0.18257 0.001,-0.36035 z m 3.3545,0.14209 c -0.0835,0.18404 -0.0821,0.31708 0,0.42627 z m -3.49512,0.74267 c -0.0248,0.077 -0.0463,0.15459 -0.0659,0.23291 -0.0195,0.0778 0.0449,-0.12419 0.0718,-0.22998 -0.002,-7.3e-4 -0.004,-0.002 -0.006,-0.003 z m 0.0644,0.0264 c -0.10478,0.28195 -0.49451,0.66381 -1.00928,1.12647 -0.12151,0.2197 -0.2543,0.42035 -0.39844,0.59765 h 2.10645 2.73194 v -0.67675 c -0.2648,-0.0463 -0.56974,-0.0981 -0.65479,-0.12745 -0.34879,-0.12026 -0.68497,-0.27415 -1.02393,-0.42041 -0.0199,-0.003 -0.025,0.001 -0.0366,-0.003 -0.0448,-0.0152 -0.0664,-0.031 -0.12745,-0.0615 -0.0405,-0.01 -0.0801,-0.0226 -0.12011,-0.0337 -0.0886,-0.0238 -1.40471,-0.37696 -1.40772,-0.37793 -0.0203,-0.007 -0.0398,-0.0163 -0.0601,-0.0234 z m 1.58789,0.43506 c 0.0137,0.003 0.0273,0.007 0.041,0.0102 -0.0519,-0.0218 -0.10302,-0.0451 -0.15527,-0.0659 -0.0394,-0.0157 0.0594,0.0283 0.11426,0.0557 z m 0.041,0.0102 c 0.0413,0.0174 0.0819,0.0364 0.12305,0.0542 0.0495,0.007 0.11925,0.0168 0.0908,0.006 -0.0691,-0.0266 -0.14185,-0.0425 -0.21387,-0.0601 z M 45.451725,59.194185 c -0.28529,0.48365 -0.56549,0.97142 -0.884765,1.43408 -0.101859,0.15281 -0.163971,0.2424 -0.246094,0.36621 0.134509,-0.0304 0.268349,-0.0638 0.405762,-0.0791 0.286,-0.0319 0.574213,-0.0391 0.861328,-0.0586 0.251539,0.003 0.502962,0.005 0.754394,0.0102 -0.207291,-0.35688 -0.513924,-0.95528 -0.890625,-1.67285 z m 159.191895,0.7163 c 0.19701,0.60806 0.31153,0.79612 0.86133,0.98438 -0.21398,-0.21617 -0.53092,-0.58847 -0.86133,-0.98438 z" />
  <path
     id="rect215"
     style="fill:#000000;fill-opacity:1;stroke-width:0.75"
     d="m 40.929753,57.130135 v 0.19775 c 0.045,0.01 0.08964,0.0198 0.134766,0.0293 v -0.11572 c -0.04388,-0.0372 -0.08944,-0.074 -0.134766,-0.11133 z" />
  <path
     id="rect217"
     style="fill:#000000;fill-opacity:1;stroke-width:0.75"
     d="m 220.77008,36.313245 c -0.024,0.006 -0.0549,0.007 -0.0806,0.0117 v 0.0337 c 0.0271,0.0117 0.0537,0.0244 0.0806,0.0366 z" />
  <rect
     style="fill:none;fill-opacity:1;stroke-width:0.75"
     id="rect681"
     width="489.66693"
     height="430.57455"
     x="-10.542099"
     y="-12.523223" />
  <rect
     style="fill:none;fill-opacity:1;stroke-width:0.75"
     id="rect683"
     width="165.14876"
     height="84.159203"
     x="56.406982"
     y="-0.63549691" />
  <rect
     style="fill:none;fill-opacity:1;stroke-width:0.75"
     id="rect685"
     width="170.83621"
     height="74.567062"
     x="66.735352"
     y="9.6708994" />
  <rect
     style="fill:none;fill-opacity:1;stroke-width:0.75"
     id="rect687"
     width="199.21146"
     height="104.22998"
     x="40.291695"
     y="-5.0614462" />
  <rect
     style="fill:none;fill-opacity:1;stroke-width:0.75"
     id="rect689"
     width="194.99431"
     height="81.010994"
     x="45.487122"
     y="10.306321" />
  <rect
     style="fill:none;fill-opacity:1;stroke-width:0.75"
     id="rect691"
     width="3.039408"
     height="1.8446605"
     x="367.79086"
     y="157.51582" />
  <g
     id="g750"
     transform="translate(100.92839,14.358205)">
    <g
       id="g661"
       transform="translate(-1.8075252,139.27707)">
      <g
         fill="#000000"
         fill-opacity="1"
         id="g15"
         transform="translate(-64.164062,-140.39503)">
        <g
           transform="translate(66.761116,230.34775)"
           id="g13">
          <g
             id="g11" />
        </g>
      </g>
      <g
         fill="#000000"
         fill-opacity="1"
         id="g23"
         transform="translate(-64.164062,-140.39503)">
        <g
           transform="translate(167.58539,230.34775)"
           id="g21">
          <g
             id="g19" />
        </g>
      </g>
      <g
         fill="#000000"
         fill-opacity="1"
         id="g35"
         transform="translate(-61.01702,-140.76512)">
        <g
           transform="translate(71.620326,205.74413)"
           id="g33">
          <g
             id="g31" />
        </g>
      </g>
      <g
         fill="#000000"
         fill-opacity="1"
         id="g49"
         transform="translate(-59.80115,-59.363364)">
        <g
           transform="translate(103.55934,205.74413)"
           id="g47">
          <g
             id="g45" />
        </g>
      </g>
      <g
         fill="#000000"
         fill-opacity="1"
         id="g63"
         transform="translate(-61.01702,-140.76512)">
        <g
           transform="translate(133.74338,205.74413)"
           id="g61">
          <g
             id="g59" />
        </g>
      </g>
      <g
         fill="#000000"
         fill-opacity="1"
         id="g77"
         transform="translate(-61.01702,-140.76512)">
        <g
           transform="translate(164.01272,205.74413)"
           id="g75">
          <g
             id="g73" />
        </g>
      </g>
      <g
         fill="#000000"
         fill-opacity="1"
         id="g91"
         transform="translate(-61.01702,-140.76512)">
        <g
           transform="translate(193.53865,205.74413)"
           id="g89">
          <g
             id="g87" />
        </g>
      </g>
      <g
         fill="#000000"
         fill-opacity="1"
         id="g105"
         transform="translate(-61.01702,-140.76512)">
        <g
           transform="translate(222.15051,205.74413)"
           id="g103">
          <g
             id="g101" />
        </g>
      </g>
    </g>
    <g
       id="g1210"
       transform="translate(-104.13942,-163.80715)">
      <path
         id="path9"
         style="stroke-width:1.33333"
         transform="matrix(0.74999998,0,0,0.74999998,-1.8075253,139.27707)"
         d="m 6.6914062,13.5625 v 1.603516 l 4.1874998,1.9375 c 2.041667,0.864584 3.303385,1.936849 3.792969,3.228515 0.484375,1.28125 0.728516,2.995443 0.728516,5.146485 v 36.546875 h 3.785156 l -0.410156,-34.44336 13.107421,34.44336 h 1.017579 3.90625 3.662109 6.505859 2.333985 c 0.08382,-0.0058 0.169742,-0.01688 0.25,-0.01367 0.18879,9.32e-4 0.377625,0.0085 0.566406,0.01367 h 1.957031 c 0.07684,-0.0041 0.153621,0.0022 0.230469,-0.0039 0.830829,-0.05692 1.581006,-0.107563 2.332031,-0.101562 0.477535,0.0038 0.963632,0.04341 1.460938,0.105469 h 0.214843 L 37.796875,13.5625 Z m 88.9804688,0 -17.435547,48.462891 h 0.757813 3.859375 l 12.818359,-35.56836 -0.257813,35.56836 h 2.371094 2.701174 2.00195 1.64453 1.64844 2.39844 3.02343 7.16407 1.1582 v -37.50586 c 0,-2.151041 0.375,-3.895182 1.125,-5.228515 0.75,-1.343751 2.14583,-2.400391 4.1875,-3.166016 l 2.58399,-0.958984 V 13.5625 Z M 15.400391,98.583984 V 108 c 0,4.94792 -1.833334,8.01042 -5.5000004,9.1875 l -3.2089844,1.14453 v 1.60547 H 27.962891 v -1.60547 l -3.541016,-1.14453 c -2.041667,-0.63542 -3.416667,-1.67708 -4.125,-3.125 -0.697917,-1.45833 -1.042969,-3.36589 -1.042969,-5.73047 v -9.746092 c -1.284426,-4.81e-4 -2.568846,-0.0017 -3.853515,-0.002 z m 30.396484,0.002 8.125,21.351566 h 8.0625 L 69.677734,98.585938 H 60.5625 53.916016 46.339844 Z m 49.541016,0 V 108.8125 c 0,2.15625 -0.270834,3.82292 -0.8125,5 -0.53125,1.18229 -1.811849,2.20313 -3.853516,3.0625 l -3.396484,1.45703 v 1.60547 h 40.146489 v -1.60547 l -3.23047,-1.45703 c -2.04167,-0.85937 -3.33334,-1.88021 -3.875,-3.0625 -0.53125,-1.17708 -0.79102,-2.84375 -0.79102,-5 V 98.585938 h -1.52148 -8.63086 -10.759769 z" />
      <path
         id="path17"
         style="stroke-width:1.33333"
         d="m 141.4375,13.5625 v 1.603516 l 3.70703,1.458984 c 2.04167,0.75 3.35417,1.744141 3.9375,2.978516 0.59375,1.239584 0.89649,2.927082 0.89649,5.0625 v 37.501953 h 1.16601 2.03125 1.79688 2.35937 1.75977 2.53125 1.19726 1.81641 1.48437 1.79493 1.14453 1.23047 1.26562 1.2207 1.38868 V 16.769531 h 29 c 2.15104,0 3.76106,0.600261 4.83398,1.792969 1.08333,1.182292 2.10807,2.738933 3.08203,4.666016 L 218,38.375 h 1.625 l -0.98047,-24.8125 z m 61.10352,37.0625 -3.22852,6.457031 c -0.86458,1.932292 -1.86458,3.458985 -3,4.583985 -0.18411,0.184108 -0.38821,0.347974 -0.59961,0.501953 h 0.875 1.625 1.66211 1.05664 1.66211 1.55078 V 50.625 Z m -52.5625,47.960938 V 108.8125 c 0,2.15625 -0.34831,3.84766 -1.04102,5.08203 -0.69792,1.23959 -1.95964,2.23047 -3.79297,2.98047 l -3.70703,1.45703 v 1.60547 h 80.4375 l 0.82422,-21.351562 h -0.31641 -2.23242 -0.43164 L 214.625,110.26953 c -0.75,2.04167 -1.72526,3.625 -2.91797,4.75 -1.18229,1.125 -2.8431,1.6875 -4.97851,1.6875 h -32.5625 V 98.585938 h -0.65235 -4.11523 -4.63867 -5.85938 -5.5293 z"
         transform="matrix(0.74999998,0,0,0.74999998,-1.8075253,139.27707)" />
      <path
         d="M 8.828125,-8.0625 V 0 H 7.921875 V -6.671875 L 4.9375,-2.84375 1.90625,-6.671875 V 0 H 0.984375 v -8.0625 h 1.0625 L 4.9375,-4.234375 7.78125,-8.0625 Z m 0,0"
         id="path29"
         transform="translate(8.7957794,204.25608)" />
      <path
         d="m 6.8153797,-81.401765 h -1.015625 l -0.984375,-2.34375 H 0.81537971 l -0.984375,2.34375 H -1.1846203 l 3.4375,-8.0625 h 1.140625 z m -2.359375,-3.1875 -1.640625,-3.9375 -1.640625,3.9375 z m 0,0"
         id="path43"
         transform="translate(41.950669,285.65784)" />
      <path
         d="M 1.90625,0 H 0.984375 V -8.0625 H 4.84375 c 0.820312,0 1.484375,0.226562 1.984375,0.671875 0.488281,0.449219 0.734375,1.0625 0.734375,1.84375 0,1.011719 -0.417969,1.699219 -1.25,2.0625 C 6.070312,-3.378906 5.84375,-3.300781 5.625,-3.25 L 7.734375,0 H 6.65625 L 4.703125,-3.09375 H 1.90625 Z m 0,-3.953125 H 4.6875 c 0.863281,0 1.457031,-0.269531 1.78125,-0.8125 0.125,-0.195313 0.1875,-0.457031 0.1875,-0.78125 C 6.65625,-6.054688 6.476562,-6.457031 6.125,-6.75 5.78125,-7.050781 5.316406,-7.203125 4.734375,-7.203125 H 1.90625 Z m 0,0"
         id="path57"
         transform="translate(70.918833,204.25608)" />
      <path
         d="m 1.90625,-7.1875 v 2.703125 H 6.390625 V -3.59375 H 1.90625 V -0.875 H 6.921875 V 0 h -5.9375 v -8.0625 h 5.9375 v 0.875 z m 0,0"
         id="path71"
         transform="translate(101.18817,204.25608)" />
      <path
         d="M 1.90625,-8.0625 V -0.875 H 6.296875 V 0 h -5.3125 v -8.0625 z m 0,0"
         id="path85"
         transform="translate(130.7141,204.25608)" />
      <path
         d="M 4.296875,0 H 3.375 v -3.1875 l -3.390625,-4.875 H 1.09375 L 3.828125,-4.140625 6.5625,-8.0625 h 1.109375 l -3.375,4.875 z m 0,0"
         id="path99"
         transform="translate(159.32597,204.25608)" />
      <text
         xml:space="preserve"
         id="text1171"
         style="font-style:normal;font-variant:normal;font-weight:bold;font-stretch:normal;font-size:32px;line-height:1.25;font-family:Quicksand;-inkscape-font-specification:'Quicksand, Bold';font-variant-ligatures:normal;font-variant-caps:normal;font-variant-numeric:normal;font-variant-east-asian:normal;white-space:pre;shape-inside:url(#rect1173);fill:#000000;fill-opacity:1;stroke:none;"
         transform="translate(-5.3460937,-24.235602)"><tspan
           x="182.44141"
           y="203.71719"><tspan
             style="font-style:normal;font-variant:normal;font-weight:600;font-stretch:normal;font-size:28px;font-family:'URW Gothic';-inkscape-font-specification:'URW Gothic, Semi-Bold';font-variant-ligatures:normal;font-variant-caps:normal;font-variant-numeric:normal;font-variant-east-asian:normal">Librería &amp; 
</tspan></tspan><tspan
           x="182.44141"
           y="244.12519"><tspan
             style="font-style:normal;font-variant:normal;font-weight:normal;font-stretch:normal;font-size:28px;font-family:'URW Gothic';-inkscape-font-specification:'URW Gothic, Normal';font-variant-ligatures:normal;font-variant-caps:normal;font-variant-numeric:normal;font-variant-east-asian:normal">Art. Escolares</tspan></tspan></text>
    </g>
    <rect
       style="fill:none;fill-opacity:1;stroke-width:0.75"
       id="rect1189"
       width="378.46439"
       height="124.83073"
       x="-14.143126"
       y="119.33101" />
    <g
       id="g1217">
      <rect
         style="fill:none;fill-opacity:1;stroke-width:0.75"
         id="rect1214"
         width="368.1199"
         height="111.08433"
         x="-3.7986407"
         y="133.07742" />
    </g>
  </g>
</svg>
