<?xml version="1.0" encoding="UTF-8" standalone="no"?>
<svg
   xmlns:dc="http://purl.org/dc/elements/1.1/"
   xmlns:cc="http://creativecommons.org/ns#"
   xmlns:rdf="http://www.w3.org/1999/02/22-rdf-syntax-ns#"
   xmlns:svg="http://www.w3.org/2000/svg"
   xmlns="http://www.w3.org/2000/svg"
   width="249.84015mm"
   height="295.22525mm"
   viewBox="0 0 249.84015 295.22525"
   version="1.1"
   id="svg8">
  <defs
     id="defs2" />
  <metadata
     id="metadata5">
    <rdf:RDF>
      <cc:Work
         rdf:about="">
        <dc:format>image/svg+xml</dc:format>
        <dc:type
           rdf:resource="http://purl.org/dc/dcmitype/StillImage" />
        <dc:title></dc:title>
      </cc:Work>
    </rdf:RDF>
  </metadata>
  <g
     id="layer1"
     transform="translate(19.471875,0.2961472)">
    <path
       style="fill:#f29100;stroke-width:0.352778;fill-opacity:1"
       d="m 103.1184,294.49794 -1.05833,-0.14721 -3.880556,-0.37858 -3.880556,-0.37857 -5.291666,-1.04445 -5.291667,-1.04445 -4.607397,-1.37919 -4.607398,-1.3792 -4.741213,-1.85585 -4.741214,-1.85584 -5.291666,-2.70346 -5.291667,-2.70345 -3.351388,-2.10001 -3.351389,-2.10001 -3.880556,-2.76319 -3.880555,-2.7632 -2.469445,-2.02497 -2.469444,-2.02497 -3.774256,-3.47935 -3.774253,-3.47936 -3.106329,-3.35139 -3.106328,-3.35139 -2.492914,-2.99861 -2.492915,-2.99861 -1.596955,-2.11667 -1.596954,-2.11666 -2.831189,-4.23334 -2.83119,-4.23333 -1.7559735,-2.99861 -1.7559732,-2.99861 -1.9697333,-3.70417 -1.96973364,-3.70417 -1.99772966,-4.58611 -1.9977294,-4.58611 -1.340286,-3.52778 -1.340286,-3.52777 -1.4320008,-4.58612 -1.4320008,-4.58611 -1.0487137,-4.23333 -1.048714,-4.23333 -0.896638,-4.46814 -0.896638,-4.46814 -1.052287,-6.29158 -1.052288,-6.29159 -0.550623,-4.05694 -0.550623,-4.05695 -0.543672,-5.11527 -0.543671,-5.11528 -0.199123,-9.87778 -0.199123,-9.87778 0.587467,-5.11528 0.587467,-5.11527 0.893776,-4.01574 0.893776,-4.01573 1.23419,-3.56899 1.234189,-3.56899 1.548078,-3.087518 1.5480771,-3.087518 2.0323079,-3.08603 2.0323079,-3.086025 3.7120483,-3.74275 3.7120484,-3.742751 2.6458332,-1.961356 2.6458333,-1.961356 3.5611959,-2.110289 3.561197,-2.110292 4.826317,-2.140867 4.826318,-2.140863 5.018041,-1.620288 5.018042,-1.620287 4.409722,-1.053285 4.409722,-1.053282 4.845441,-1.028442 4.845445,-1.028442 4.334955,-1.243009 4.334951,-1.243009 4.225159,-1.541392 4.225159,-1.541392 3.880556,-1.596186 3.880555,-1.596185 4.586111,-2.02334 4.586111,-2.023339 9.348611,-4.670171 9.348612,-4.670171 9.525,-5.047139 9.525,-5.047135 11.4184,-5.939313 11.4184,-5.939313 6.39688,-3.036309 6.39687,-3.036308 4.7625,-2.0295131 4.7625,-2.029513 5.09135,-1.8416242 5.09135,-1.8416239 4.36142,-1.1953314 4.36142,-1.1953314 3.77639,-0.573756 3.7764,-0.5737564 4.58611,0.00943 4.58611,0.00943 2.82223,0.7237596 2.82222,0.7237593 2.89583,1.4530088 2.89583,1.4530088 2.93512,3.0497625 2.93512,3.0497634 1.66527,3.230444 1.66527,3.230444 1.07021,3.274963 1.07021,3.274964 0.85459,4.254314 0.8546,4.254315 0.63096,5.291667 0.63096,5.291667 -0.0103,15.698611 -0.0103,15.698611 -0.61338,6.526389 -0.61337,6.526389 -0.53379,4.7625 -0.53378,4.7625 -1.06739,7.408341 -1.0674,7.40833 -1.4148,7.76111 -1.4148,7.76111 -1.59158,7.40833 -1.59158,7.40834 -2.23611,8.81944 -2.2361,8.81945 -1.99553,6.87916 -1.99553,6.87917 -2.6604,8.11389 -2.6604,8.11389 -2.20718,5.99722 -2.20719,5.99722 -2.51193,6.22001 -2.51193,6.22 -3.02052,6.65639 -3.02051,6.65638 -3.27661,6.35 -3.2766,6.35 -3.09665,5.29167 -3.09664,5.29167 -2.68487,4.04679 -2.68488,4.0468 -2.79303,3.71431 -2.79303,3.71432 -2.67955,3.16412 -2.67955,3.16414 -3.03523,3.03657 -3.03523,3.03657 -2.96199,2.47591 -2.96199,2.47592 -2.64584,1.75081 -2.64583,1.75081 -1.66626,0.959 -1.66626,0.959 -2.84665,1.21841 -2.84664,1.21842 -3.2482,0.87598 -3.24821,0.87599 -4.93889,0.73444 -4.93889,0.73445 -7.58472,0.13321 -7.58472,0.13321 -1.05834,-0.14721 z"
       id="path911" />
    <path
       style="fill:#fed4cc;stroke-width:0.352778"
       d="m 108.33251,294.79261 1.68635,-0.13256 1.48865,0.13452 1.48867,0.13452 -3.175,-0.002 -3.175,-0.002 1.68633,-0.13256 z m 10.41835,-0.33402 0.46303,-0.18529 0.21313,0.21314 0.21314,0.21313 -0.67616,-0.0278 -0.67616,-0.0278 0.46302,-0.18529 z m 40.26807,-18.89721 1.57276,-1.67569 h 0.10294 0.10293 v 0.10293 0.10294 l -1.67569,1.57276 -1.67569,1.57275 z m -131.936188,-16.75694 -1.928226,-2.02848 2.028472,1.92823 2.028472,1.92823 v 0.10024 0.10025 h -0.100245 -0.100246 z m -45.46843,-118.47454 0.02785,-0.67616 0.185286,0.46302 0.185285,0.46302 -0.213136,0.21314 -0.213137,0.21313 0.02785,-0.67615 z m 0,-14.11111 0.02785,-0.67616 0.185285,0.46302 0.185286,0.46302 -0.213137,0.21314 -0.213137,0.21313 0.02785,-0.67615 z M 231.05604,68.216238 v -0.881945 l 0.17794,0.440973 0.17794,0.440972 -0.17794,0.440972 -0.17794,0.440972 z m -0.0278,-20.31412 0.0278,-0.676158 0.18529,0.463021 0.18528,0.46302 -0.21313,0.213138 -0.21314,0.213134 0.0278,-0.676155 z"
       id="path921" />
    <path
       style="fill:#feb6aa;stroke-width:0.352778"
       d="m -18.357837,138.41902 v -0.88195 l 0.177936,0.44098 0.177936,0.44097 -0.177936,0.44097 -0.177936,0.44097 z"
       id="path919" />
    <path
       style="fill:#fea797;stroke-width:0.352778"
       d="m -18.324574,136.47874 0.0071,-1.41111 0.153422,0.79786 0.153422,0.79787 -0.160542,0.61324 -0.160541,0.61325 0.0071,-1.41111 z m -0.06111,-8.14329 0.02785,-0.67616 0.185285,0.46303 0.185286,0.46302 -0.213137,0.21313 -0.213137,0.21314 0.02785,-0.67616 z M 231.05604,65.394016 v -0.881945 l 0.17794,0.440972 0.17794,0.440973 -0.17794,0.440972 -0.17794,0.440972 z m 0.0131,-14.993056 0.0131,-1.058334 0.16262,0.624075 0.16263,0.624074 -0.1757,0.434259 -0.1757,0.434259 0.0131,-1.058333 z"
       id="path917" />
    <path
       style="fill:#fe8873;stroke-width:0.352778"
       d="m -18.03291,144.21045 0.02785,-0.67615 0.185286,0.46302 0.185286,0.46302 -0.213137,0.21313 -0.213137,0.21314 0.02785,-0.67616 z m -0.253454,-12.14143 v -3.35139 l 0.13213,1.67569 0.132131,1.6757 -0.132131,1.67569 -0.13213,1.6757 z m 16.2769911,-47.272226 1.37791326,-1.411112 h 0.17638888 0.17638889 l -1.37791323,1.411112 -1.3779133,1.411111 H -3.2108973 -3.3872862 Z M 230.67541,72.243785 l 0.0278,-0.676158 0.18528,0.463021 0.18529,0.46302 -0.21313,0.213138 -0.21314,0.213134 0.0278,-0.676155 z m 0.41389,-8.790047 0.007,-1.411111 0.15342,0.797863 0.15343,0.797863 -0.16055,0.613248 -0.16054,0.613248 0.007,-1.411111 z m -0.007,-11.1125 v -1.234723 l 0.16133,0.617361 0.16134,0.617362 -0.16134,0.617361 -0.16133,0.617361 z m -34.01466,-52.4520996 0.46302,-0.1852856 0.21314,0.2131363 0.21313,0.2131367 -0.67615,-0.027852 -0.67616,-0.027852 0.46302,-0.1852856 z"
       id="path915" />
    <path
       style="fill:#fe6c52;stroke-width:0.352778"
       d="m 156.56423,277.58985 0.82855,-0.88194 h 0.17638 0.17639 l -0.82854,0.88194 -0.82855,0.88195 h -0.17638 -0.17639 z m 4.58611,-4.58611 0.82855,-0.88194 h 0.17639 0.17638 l -0.82854,0.88194 -0.82854,0.88195 h -0.17639 -0.17639 z m -130.899537,-11.37708 -1.215732,-1.32292 1.322917,1.21573 1.322916,1.21573 v 0.10719 0.10718 H 31.57372 31.466532 Z m -5.644444,-5.64445 -1.215732,-1.32291 1.322916,1.21573 1.322917,1.21573 v 0.10719 0.10718 H 25.929275 25.822087 Z M -18.005059,143.00513 v -0.88195 l 0.177936,0.44098 0.177936,0.44097 -0.177936,0.44097 -0.177936,0.44097 z m 247.974919,-61.589122 0.0278,-0.676159 0.18529,0.463021 0.18529,0.463021 -0.21314,0.213137 -0.21314,0.213135 0.0278,-0.676155 z m 0.35278,-4.586112 0.0278,-0.676158 0.18529,0.463021 0.18528,0.463021 -0.21313,0.213137 -0.21314,0.213135 0.0278,-0.676156 z m 0.38062,-5.791436 v -0.881944 l 0.17794,0.440972 0.17794,0.440972 -0.17794,0.440972 -0.17794,0.440972 z m 0.43415,-13.229167 0.001,-4.586111 0.12374,2.395922 0.12375,2.395922 -0.12487,2.190189 -0.12487,2.190189 0.001,-4.586111 z m -0.462,-12.729397 0.0278,-0.676158 0.18528,0.46302 0.18529,0.463021 -0.21313,0.213138 -0.21314,0.213134 0.0278,-0.676155 z M 219.0059,7.0092925 l -1.55802,-1.5875 h 0.17639 0.17639 l 1.55801,1.5875 1.55802,1.5875004 h -0.17639 -0.17639 z m -20.90209,-7.1128047 0.44098,-0.1779362 0.44097,0.1779362 0.44097,0.1779362 h -0.88194 -0.88195 z m 3.71088,-0.010834 0.62408,-0.1626263 0.43426,0.1756981 0.43426,0.1756982 -1.05834,-0.01307 -1.05833,-0.01307 0.62407,-0.1626263 z"
       id="path913" />
  </g>
</svg>
